<?xml version="1.0" standalone="no"?>
<!DOCTYPE svg PUBLIC "-//W3C//DTD SVG 20010904//EN"
 "http://www.w3.org/TR/2001/REC-SVG-20010904/DTD/svg10.dtd">
<svg version="1.0" xmlns="http://www.w3.org/2000/svg"
 width="976.000000pt" height="976.000000pt" viewBox="0 0 976.000000 976.000000"
 preserveAspectRatio="xMidYMid meet">
<metadata>
Created by potrace 1.11, written by Peter Selinger 2001-2013
</metadata>
<g transform="translate(0.000000,976.000000) scale(0.100000,-0.100000)"
fill="#000000" stroke="none">
<path d="M1336 9321 c-3 -4 -21 -8 -41 -9 -20 -1 -40 -4 -46 -7 -5 -4 -22 -9
-37 -11 -40 -8 -196 -73 -200 -84 -2 -6 -12 -10 -23 -10 -10 0 -19 -4 -19 -8
0 -5 -10 -14 -22 -20 -65 -30 -201 -165 -265 -262 -42 -64 -93 -159 -93 -174
0 -3 -5 -17 -12 -33 -6 -15 -12 -32 -13 -38 -2 -5 -8 -30 -15 -55 -21 -75 -22
-91 -25 -500 -2 -217 -4 -397 -5 -400 -1 -3 -1 -9 0 -15 7 -27 4 -458 -3 -462
-4 -2 -4 -9 -1 -15 10 -16 11 -459 1 -465 -4 -2 -4 -9 0 -15 9 -16 10 -939 0
-945 -4 -2 -4 -9 -1 -15 10 -16 11 -459 1 -465 -4 -2 -4 -9 -1 -15 10 -16 11
-459 1 -465 -4 -2 -4 -9 0 -15 9 -16 10 -939 0 -945 -4 -2 -4 -9 -1 -15 10
-16 11 -459 1 -465 -4 -2 -4 -9 -1 -15 10 -16 11 -459 1 -465 -4 -2 -4 -9 0
-15 9 -16 10 -939 0 -945 -4 -2 -4 -9 -1 -15 4 -6 8 -63 9 -127 3 -121 7 -151
30 -241 30 -113 102 -265 150 -316 5 -6 24 -28 40 -49 29 -38 86 -93 126 -124
11 -9 32 -26 47 -38 35 -30 186 -106 242 -122 25 -7 52 -16 60 -19 17 -6 20
-7 75 -18 50 -11 6842 -12 6909 -1 27 4 56 12 65 17 9 4 18 8 21 8 39 -1 213
74 251 108 8 8 19 14 24 14 12 0 93 68 151 127 60 60 160 206 170 245 3 16 10
28 14 28 6 0 51 134 52 157 0 5 4 18 9 31 18 48 31 524 15 550 -4 7 -4 12 1
12 10 0 8 93 -1 109 -4 6 -4 11 1 11 10 0 8 93 -1 109 -4 6 -4 11 1 11 10 0 8
93 -1 109 -4 6 -4 11 1 11 10 0 8 93 -1 109 -4 6 -4 11 1 11 10 0 8 93 -1 109
-4 6 -4 11 1 11 10 0 8 93 -1 109 -4 6 -4 11 1 11 10 0 8 93 -1 109 -4 6 -4
11 1 11 10 0 8 93 -1 109 -4 6 -4 11 1 11 10 0 8 93 -1 109 -4 6 -4 11 1 11
10 0 8 93 -1 109 -4 6 -4 11 1 11 10 0 8 93 -1 109 -4 6 -4 11 1 11 10 0 8 93
-1 109 -4 6 -4 11 1 11 10 0 8 93 -1 109 -4 6 -4 11 1 11 10 0 8 93 -1 109 -4
6 -4 11 1 11 10 0 8 93 -1 109 -4 6 -4 11 1 11 10 0 8 93 -1 109 -4 6 -4 11 1
11 10 0 8 93 -1 109 -4 6 -4 11 1 11 10 0 8 93 -1 109 -4 6 -4 11 1 11 10 0 8
93 -1 109 -4 6 -4 11 1 11 10 0 8 1534 -2 1549 -3 6 -3 11 2 11 10 0 8 93 -1
109 -4 6 -4 11 1 11 10 0 8 93 -1 109 -4 6 -4 11 1 11 10 0 8 93 -1 109 -4 6
-4 11 1 11 10 0 8 93 -1 109 -4 6 -4 11 1 11 10 0 8 93 -1 109 -4 6 -4 11 1
11 10 0 8 93 -1 109 -4 6 -4 11 1 11 10 0 8 93 -1 109 -4 6 -4 11 1 11 10 0 8
93 -1 109 -4 6 -4 11 1 11 10 0 8 93 -1 109 -4 6 -4 11 1 11 10 0 8 93 -1 109
-4 6 -4 11 1 11 10 0 8 93 -1 109 -4 6 -4 11 1 11 10 0 8 93 -1 109 -4 6 -4
11 1 11 10 0 8 93 -1 109 -4 6 -4 11 1 11 10 0 8 93 -1 109 -4 6 -4 11 1 11
10 0 8 93 -1 109 -4 6 -4 11 1 11 10 0 8 93 -1 109 -4 6 -4 11 1 11 10 0 8 93
-1 109 -4 6 -4 11 1 11 10 0 8 93 -1 109 -4 6 -4 11 1 11 10 0 8 93 -1 109 -4
6 -3 11 1 11 9 0 9 17 -1 165 -6 86 -8 97 -26 165 -15 57 -81 214 -92 218 -4
2 -8 9 -8 15 0 39 -173 228 -265 290 -33 22 -61 44 -63 49 -2 4 -9 8 -16 8 -7
0 -38 14 -69 31 -31 17 -57 28 -57 24 0 -3 -13 1 -29 9 -29 16 -58 23 -126 33
-22 3 -45 9 -50 14 -13 10 -6833 10 -6839 0z"/>
</g>
</svg>
