<svg xmlns="http://www.w3.org/2000/svg" height="79.95121765136719" version="1.1" width="80.92682647705078"><rect id="backgroundrect" width="100%" height="100%" x="0" y="0" fill="none" stroke="none" class="" style=""/> <g class="currentLayer" style=""><title>Layer 1</title><g id="svg_1" class=""><g id="surface1" stroke-width="0">
<path d="M72.05800572508682,13.47032292594772 C72.05800572508682,10.602223563859008 69.7330979335246,8.277315772296799 66.8649985714359,8.277315772296799 L14.933737594984585,8.277315772296799 C12.065638232895873,8.277315772296799 9.740730441333664,10.602223563859008 9.740730441333664,13.47032292594772 L9.740730441333664,65.40158390239904 C9.740730441333664,68.26908900094034 12.065638232895873,70.59459105604995 14.933737594984585,70.59459105604995 L66.8649985714359,70.59459105604995 C69.7325036699772,70.59459105604995 72.05800572508682,68.26908900094034 72.05800572508682,65.40158390239904 zM64.26849484246922,62.80508017343236 L17.530241323951252,62.80508017343236 L17.530241323951252,16.066826654914387 L64.26849484246922,16.066826654914387 zM64.26849484246922,62.80508017343236 " style="fill:#008080" data-original="#4E901E" class="" data-old_color="#07ADAD" stroke-width="0" id="svg_2"/>
<path d="M17.530241323951252,62.80508017343236 L64.26849484246922,62.80508017343236 L64.26849484246922,16.066826654914387 L17.530241323951252,16.066826654914387 zM27.916850046941722,23.85693164893819 C29.350899727986082,23.85693164893819 30.51335362376718,25.0193856968605 30.51335362376718,26.453435377904857 C30.51335362376718,27.887485058949217 29.350899727986082,29.049938954730315 27.916850046941722,29.049938954730315 C26.482800365897365,29.049938954730315 25.320346317975055,27.887485058949217 25.320346317975055,26.453435377904857 C25.320346317975055,25.0193856968605 26.482800365897365,23.85693164893819 27.916850046941722,23.85693164893819 zM27.916850046941722,23.85693164893819 " style="fill:#07ADAD" data-original="#5EAC24" class="active-path" data-old_color="#008080" stroke-width="0" id="svg_3"/>
<path d="M30.51335362376718,26.453435377904857 C30.51335362376718,27.887485058949217 29.350899727986082,29.049938954730315 27.916850046941722,29.049938954730315 C26.482800365897365,29.049938954730315 25.320346317975055,27.887485058949217 25.320346317975055,26.453435377904857 C25.320346317975055,25.0193856968605 26.482800365897365,23.85693164893819 27.916850046941722,23.85693164893819 C29.350899727986082,23.85693164893819 30.51335362376718,25.0193856968605 30.51335362376718,26.453435377904857 zM30.51335362376718,26.453435377904857 " style="fill:#008080" data-original="#4E901E" class="" data-old_color="#07ADAD" stroke-width="0" id="svg_4"/>
<path d="M35.706360929559324,0.48780488967920277 L38.30286450638477,0.48780488967920277 L38.30286450638477,8.277315772296799 L35.706360929559324,8.277315772296799 zM35.706360929559324,0.48780488967920277 " style=" stroke:none;fill-rule:nonzero;fill:rgb(100%,59.607843%,6.666667%);fill-opacity:1;" data-original="#FF9811" stroke-width="0" id="svg_5"/>
<path d="M43.49587166003569,0.48780488967920277 L46.09237523686116,0.48780488967920277 L46.09237523686116,8.277315772296799 L43.49587166003569,8.277315772296799 zM43.49587166003569,0.48780488967920277 " style=" stroke:none;fill-rule:nonzero;fill:rgb(100%,59.607843%,6.666667%);fill-opacity:1;" data-original="#FF9811" stroke-width="0" id="svg_6"/>
<path d="M51.28538254265329,0.48780488967920277 L53.88188611947874,0.48780488967920277 L53.88188611947874,8.277315772296799 L51.28538254265329,8.277315772296799 zM51.28538254265329,0.48780488967920277 " style=" stroke:none;fill-rule:nonzero;fill:rgb(100%,59.607843%,6.666667%);fill-opacity:1;" data-original="#FF9811" stroke-width="0" id="svg_7"/>
<path d="M59.0754876888183,0.48780488967920277 L61.671991265643754,0.48780488967920277 L61.671991265643754,8.277315772296799 L59.0754876888183,8.277315772296799 zM59.0754876888183,0.48780488967920277 " style=" stroke:none;fill-rule:nonzero;fill:rgb(100%,59.607843%,6.666667%);fill-opacity:1;" data-original="#FF9811" stroke-width="0" id="svg_8"/>
<path d="M20.127339164324127,0.48780488967920277 L22.72384274114959,0.48780488967920277 L22.72384274114959,8.277315772296799 L20.127339164324127,8.277315772296799 zM20.127339164324127,0.48780488967920277 " style=" stroke:none;fill-rule:nonzero;fill:rgb(100%,59.607843%,6.666667%);fill-opacity:1;" data-original="#FF9811" stroke-width="0" id="svg_9"/>
<path d="M27.916850046941722,0.48780488967920277 L30.51335362376718,0.48780488967920277 L30.51335362376718,8.277315772296799 L27.916850046941722,8.277315772296799 zM27.916850046941722,0.48780488967920277 " style=" stroke:none;fill-rule:nonzero;fill:rgb(100%,59.607843%,6.666667%);fill-opacity:1;" data-original="#FF9811" stroke-width="0" id="svg_10"/>
<path d="M31.81130828040621,53.717020522769545 L34.40781185723168,53.717020522769545 L34.40781185723168,58.91002767642046 L31.81130828040621,58.91002767642046 zM31.81130828040621,53.717020522769545 " style="fill:#FFDA44" data-original="#FFDA44" class="" data-old_color=" stroke:nonefill-rule:nonzero;rgb(100%,85.490196%,26.666667%);fill-opacity:1;" stroke-width="0" id="svg_11"/>
<path d="M37.00431558619834,53.717020522769545 L39.60141342657121,53.717020522769545 L39.60141342657121,58.91002767642046 L37.00431558619834,58.91002767642046 zM37.00431558619834,53.717020522769545 " style="fill:#FFDA44" data-original="#FFDA44" class="" data-old_color=" stroke:nonefill-rule:nonzero;rgb(100%,85.490196%,26.666667%);fill-opacity:1;" stroke-width="0" id="svg_12"/>
<path d="M42.19732273984928,53.717020522769545 L44.79442058022213,53.717020522769545 L44.79442058022213,58.91002767642046 L42.19732273984928,58.91002767642046 zM42.19732273984928,53.717020522769545 " style="fill:#FFDA44" data-original="#FFDA44" class="" data-old_color=" stroke:nonefill-rule:nonzero;rgb(100%,85.490196%,26.666667%);fill-opacity:1;" stroke-width="0" id="svg_13"/>
<path d="M47.39092430918881,53.717020522769545 L49.987427886014274,53.717020522769545 L49.987427886014274,58.91002767642046 L47.39092430918881,58.91002767642046 zM47.39092430918881,53.717020522769545 " style="fill:#FFDA44" data-original="#FFDA44" class="" data-old_color=" stroke:nonefill-rule:nonzero;rgb(100%,85.490196%,26.666667%);fill-opacity:1;" stroke-width="0" id="svg_14"/>
<path d="M52.58393146283973,53.717020522769545 L55.18043519180641,53.717020522769545 L55.18043519180641,58.91002767642046 L52.58393146283973,58.91002767642046 zM52.58393146283973,53.717020522769545 " style="fill:#FFDA44" data-original="#FFDA44" class="" data-old_color=" stroke:nonefill-rule:nonzero;rgb(100%,85.490196%,26.666667%);fill-opacity:1;" stroke-width="0" id="svg_15"/>
<path d="M26.618300974614083,53.717020522769545 L29.21480470358075,53.717020522769545 L29.21480470358075,58.91002767642046 L26.618300974614083,58.91002767642046 zM26.618300974614083,53.717020522769545 " style="fill:#FFDA44" data-original="#FFDA44" class="" data-old_color=" stroke:nonefill-rule:nonzero;rgb(100%,85.490196%,26.666667%);fill-opacity:1;" stroke-width="0" id="svg_16"/>
<path d="M35.706360929559324,70.59459105604995 L38.30286450638477,70.59459105604995 L38.30286450638477,78.38410193866756 L35.706360929559324,78.38410193866756 zM35.706360929559324,70.59459105604995 " style=" stroke:none;fill-rule:nonzero;fill:rgb(100%,59.607843%,6.666667%);fill-opacity:1;" data-original="#FF9811" stroke-width="0" id="svg_17"/>
<path d="M43.49587166003569,70.59459105604995 L46.09237523686116,70.59459105604995 L46.09237523686116,78.38410193866756 L43.49587166003569,78.38410193866756 zM43.49587166003569,70.59459105604995 " style=" stroke:none;fill-rule:nonzero;fill:rgb(100%,59.607843%,6.666667%);fill-opacity:1;" data-original="#FF9811" stroke-width="0" id="svg_18"/>
<path d="M51.28538254265329,70.59459105604995 L53.88188611947874,70.59459105604995 L53.88188611947874,78.38410193866756 L51.28538254265329,78.38410193866756 zM51.28538254265329,70.59459105604995 " style=" stroke:none;fill-rule:nonzero;fill:rgb(100%,59.607843%,6.666667%);fill-opacity:1;" data-original="#FF9811" stroke-width="0" id="svg_19"/>
<path d="M59.0754876888183,70.59459105604995 L61.671991265643754,70.59459105604995 L61.671991265643754,78.38410193866756 L59.0754876888183,78.38410193866756 zM59.0754876888183,70.59459105604995 " style=" stroke:none;fill-rule:nonzero;fill:rgb(100%,59.607843%,6.666667%);fill-opacity:1;" data-original="#FF9811" stroke-width="0" id="svg_20"/>
<path d="M20.127339164324127,70.59459105604995 L22.72384274114959,70.59459105604995 L22.72384274114959,78.38410193866756 L20.127339164324127,78.38410193866756 zM20.127339164324127,70.59459105604995 " style=" stroke:none;fill-rule:nonzero;fill:rgb(100%,59.607843%,6.666667%);fill-opacity:1;" data-original="#FF9811" stroke-width="0" id="svg_21"/>
<path d="M27.916850046941722,70.59459105604995 L30.51335362376718,70.59459105604995 L30.51335362376718,78.38410193866756 L27.916850046941722,78.38410193866756 zM27.916850046941722,70.59459105604995 " style=" stroke:none;fill-rule:nonzero;fill:rgb(100%,59.607843%,6.666667%);fill-opacity:1;" data-original="#FF9811" stroke-width="0" id="svg_22"/>
<path d="M1.951219558716068,34.24294626052245 L9.740730441333664,34.24294626052245 L9.740730441333664,36.83944983734791 L1.951219558716068,36.83944983734791 zM1.951219558716068,34.24294626052245 " style=" stroke:none;fill-rule:nonzero;fill:rgb(100%,59.607843%,6.666667%);fill-opacity:1;" data-original="#FF9811" stroke-width="0" id="svg_23"/>
<path d="M1.951219558716068,26.453435377904857 L9.740730441333664,26.453435377904857 L9.740730441333664,29.049938954730315 L1.951219558716068,29.049938954730315 zM1.951219558716068,26.453435377904857 " style=" stroke:none;fill-rule:nonzero;fill:rgb(100%,59.607843%,6.666667%);fill-opacity:1;" data-original="#FF9811" stroke-width="0" id="svg_24"/>
<path d="M1.951219558716068,18.66392449528726 L9.740730441333664,18.66392449528726 L9.740730441333664,21.260428072112724 L1.951219558716068,21.260428072112724 zM1.951219558716068,18.66392449528726 " style=" stroke:none;fill-rule:nonzero;fill:rgb(100%,59.607843%,6.666667%);fill-opacity:1;" data-original="#FF9811" stroke-width="0" id="svg_25"/>
<path d="M1.951219558716068,57.612073019781434 L9.740730441333664,57.612073019781434 L9.740730441333664,60.20857659660689 L1.951219558716068,60.20857659660689 zM1.951219558716068,57.612073019781434 " style=" stroke:none;fill-rule:nonzero;fill:rgb(100%,59.607843%,6.666667%);fill-opacity:1;" data-original="#FF9811" stroke-width="0" id="svg_26"/>
<path d="M1.951219558716068,49.82196787361642 L9.740730441333664,49.82196787361642 L9.740730441333664,52.41847145044188 L1.951219558716068,52.41847145044188 zM1.951219558716068,49.82196787361642 " style=" stroke:none;fill-rule:nonzero;fill:rgb(100%,59.607843%,6.666667%);fill-opacity:1;" data-original="#FF9811" stroke-width="0" id="svg_27"/>
<path d="M1.951219558716068,42.032456990998824 L9.740730441333664,42.032456990998824 L9.740730441333664,44.62896056782429 L1.951219558716068,44.62896056782429 zM1.951219558716068,42.032456990998824 " style=" stroke:none;fill-rule:nonzero;fill:rgb(100%,59.607843%,6.666667%);fill-opacity:1;" data-original="#FF9811" stroke-width="0" id="svg_28"/>
<path d="M72.05800572508682,34.24294626052245 L79.84751660770442,34.24294626052245 L79.84751660770442,36.83944983734791 L72.05800572508682,36.83944983734791 zM72.05800572508682,34.24294626052245 " style=" stroke:none;fill-rule:nonzero;fill:rgb(100%,59.607843%,6.666667%);fill-opacity:1;" data-original="#FF9811" stroke-width="0" id="svg_29"/>
<path d="M72.05800572508682,26.453435377904857 L79.84751660770442,26.453435377904857 L79.84751660770442,29.049938954730315 L72.05800572508682,29.049938954730315 zM72.05800572508682,26.453435377904857 " style=" stroke:none;fill-rule:nonzero;fill:rgb(100%,59.607843%,6.666667%);fill-opacity:1;" data-original="#FF9811" stroke-width="0" id="svg_30"/>
<path d="M72.05800572508682,18.66392449528726 L79.84751660770442,18.66392449528726 L79.84751660770442,21.260428072112724 L72.05800572508682,21.260428072112724 zM72.05800572508682,18.66392449528726 " style=" stroke:none;fill-rule:nonzero;fill:rgb(100%,59.607843%,6.666667%);fill-opacity:1;" data-original="#FF9811" stroke-width="0" id="svg_31"/>
<path d="M72.05800572508682,57.612073019781434 L79.84751660770442,57.612073019781434 L79.84751660770442,60.20857659660689 L72.05800572508682,60.20857659660689 zM72.05800572508682,57.612073019781434 " style=" stroke:none;fill-rule:nonzero;fill:rgb(100%,59.607843%,6.666667%);fill-opacity:1;" data-original="#FF9811" stroke-width="0" id="svg_32"/>
<path d="M72.05800572508682,49.82196787361642 L79.84751660770442,49.82196787361642 L79.84751660770442,52.41847145044188 L72.05800572508682,52.41847145044188 zM72.05800572508682,49.82196787361642 " style=" stroke:none;fill-rule:nonzero;fill:rgb(100%,59.607843%,6.666667%);fill-opacity:1;" data-original="#FF9811" stroke-width="0" id="svg_33"/>
<path d="M72.05800572508682,42.032456990998824 L79.84751660770442,42.032456990998824 L79.84751660770442,44.62896056782429 L72.05800572508682,44.62896056782429 zM72.05800572508682,42.032456990998824 " style=" stroke:none;fill-rule:nonzero;fill:rgb(100%,59.607843%,6.666667%);fill-opacity:1;" data-original="#FF9811" stroke-width="0" id="svg_34"/>
<path d="M27.916850046941722,32.94439718819481 L56.478389848445424,32.94439718819481 L56.478389848445424,35.54090091716147 L27.916850046941722,35.54090091716147 zM27.916850046941722,32.94439718819481 " style="fill:#FFDA44" data-original="#FFDA44" class="" data-old_color=" stroke:nonefill-rule:nonzero;rgb(100%,85.490196%,26.666667%);fill-opacity:1;" stroke-width="0" id="svg_35"/>
<path d="M27.916850046941722,38.13799875753435 L51.28538254265329,38.13799875753435 L51.28538254265329,40.73450233435981 L27.916850046941722,40.73450233435981 zM27.916850046941722,38.13799875753435 " style="fill:#FFDA44" data-original="#FFDA44" class="" data-old_color=" stroke:nonefill-rule:nonzero;rgb(100%,85.490196%,26.666667%);fill-opacity:1;" stroke-width="0" id="svg_36"/>
<path d="M27.916850046941722,43.331005911185265 L38.30286450638477,43.331005911185265 L38.30286450638477,45.927509640151946 L27.916850046941722,45.927509640151946 zM27.916850046941722,43.331005911185265 " style="fill:#FFDA44" data-original="#FFDA44" class="" data-old_color=" stroke:nonefill-rule:nonzero;rgb(100%,85.490196%,26.666667%);fill-opacity:1;" stroke-width="0" id="svg_37"/>
<path d="M40.899368083210234,43.331005911185265 L43.49587166003569,43.331005911185265 L43.49587166003569,45.927509640151946 L40.899368083210234,45.927509640151946 zM40.899368083210234,43.331005911185265 " style="fill:#FFDA44" data-original="#FFDA44" class="" data-old_color=" stroke:nonefill-rule:nonzero;rgb(100%,85.490196%,26.666667%);fill-opacity:1;" stroke-width="0" id="svg_38"/>
<path d="M53.88188611947874,38.13799875753435 L56.478389848445424,38.13799875753435 L56.478389848445424,40.73450233435981 L53.88188611947874,40.73450233435981 zM53.88188611947874,38.13799875753435 " style="fill:#FFDA44" data-original="#FFDA44" class="" data-old_color=" stroke:nonefill-rule:nonzero;rgb(100%,85.490196%,26.666667%);fill-opacity:1;" stroke-width="0" id="svg_39"/>
</g></g></g></svg>