<svg xmlns="http://www.w3.org/2000/svg" xmlns:xlink="http://www.w3.org/1999/xlink" version="1.1" style="enable-background:new 0 0 512 512;" xml:space="preserve" width="60.747967530103665" height="58.626016234948096"><rect id="backgroundrect" width="100%" height="100%" x="0" y="0" fill="none" stroke="none" class="" style=""/> <g class="currentLayer" style=""><title>Layer 1</title><g id="svg_1" class=""><g id="svg_2">
	<g stroke-width="0" id="svg_3">
		<g stroke-width="0" id="svg_4">
			<path style="fill:#EBECEC" d="M55.902456637794906,48.42640729204114 c0,3.2307514568423565 -2.6194100894220385,5.850033005186299 -5.850033005186299,5.850033005186299 H9.102064055226421 C5.87144113946216,54.276440297227445 3.2520310500401166,51.657030207805406 3.2520310500401166,48.42640729204114 V7.476047714658954 C3.2520310500401166,4.245424798894694 5.87144113946216,1.6260147094726562 9.102064055226421,1.6260147094726562 h40.950359577382194 C53.28304654837287,1.6260147094726562 55.902456637794906,4.245424798894694 55.902456637794906,7.476047714658954 V48.42640729204114 z" data-original="#3B88C3" class="" data-old_color="#E5E4E4" stroke-width="0" id="svg_5"/>
			<path style="fill:#008080" d="M15.206608395041023,14.971406519462587 c0.2719929212492415,-1.6322146096516368 2.040203991525498,-3.4910471399849428 4.444564857294427,-3.4910471399849428 c2.2669504532852622,0 4.035032982483425,1.6322146096516368 4.53377236549243,3.2643006782251778 l5.351293622177294,17.956674445573714 h0.09062146005704878 l5.351293622177294,-17.956674445573714 c0.4971968900718647,-1.6322146096516368 2.2654079603481208,-3.2643006782251778 4.53377236549243,-3.2643006782251778 c2.402946913909883,0 4.171029443108045,1.8588325303333066 4.444564857294427,3.4910471399849428 l4.216404443675617,25.304339551646077 c0.04537500056757195,0.2705789693901955 0.04537500056757195,0.5441143835765776 0.04537500056757195,0.7693183523992003 c0,1.996371483895068 -1.4508431484594444,3.2658431711623193 -3.2643006782251778,3.2658431711623193 c-2.3137394057118805,0 -3.2189256776576065,-1.0427252255074877 -3.536293599474419,-3.1736792181681297 l-2.6763537870181704,-18.456956321519858 h-0.09216395299419013 l-5.4405011303752975,19.00094216401834 c-0.31736792181681367,1.0881002260750596 -1.1773077342730616,2.6295648345915525 -3.6270436006095625,2.6295648345915525 c-2.4481933733993593,0 -3.3110896306517965,-1.5414646085164931 -3.6284575524686096,-2.6295648345915525 l-5.442043623312437,-19.00094216401834 h-0.08920750819800262 l-2.6763537870181704,18.456956321519858 c-0.31736792181681367,2.1308254515825475 -1.2240966866996796,3.1736792181681297 -3.536293599474419,3.1736792181681297 c-1.8134575297657332,0 -3.2658431711623193,-1.2694716872672518 -3.2658431711623193,-3.2658431711623193 c0,-0.22520396882262345 0,-0.4987393830090056 0.0467889524266181,-0.7693183523992003 L15.206608395041023,14.971406519462587 z" data-original="#FFFFFF" class="active-path" data-old_color="##00808" stroke-width="0" id="svg_6"/>
		</g>
	</g>
</g></g></g></svg>