<svg version="1.1" width="76" height="79" xmlns="http://www.w3.org/2000/svg" xmlns:xlink="http://www.w3.org/1999/xlink"><rect id="backgroundrect" width="100%" height="100%" x="0" y="0" fill="none" stroke="none" style="" class=""/><g class="currentLayer" style=""><title>Layer 1</title><g id="svgg" class=""><path id="path0" d="M35.994747161865234,1.8130419254302979 C33.204647064208984,2.2152323722839355 30.768434524536133,4.139273643493652 29.3981876373291,7.022316932678223 C29.21768569946289,7.401864051818848 25.80133819580078,15.100619316101074 21.80617904663086,24.13080406188965 L14.542174339294434,40.5494270324707 L15.56156063079834,42.978736877441406 C19.498062133789062,52.361732482910156 21.178417205810547,53.15726852416992 26.462953567504883,48.139495849609375 L27.196168899536133,47.4433708190918 L25.871421813964844,47.439273834228516 C24.846431732177734,47.43625259399414 24.556808471679688,47.41102600097656 24.59153175354004,47.32756805419922 C25.668495178222656,44.73564910888672 37.61536407470703,16.321853637695312 37.6671257019043,16.229555130004883 C37.760284423828125,16.063072204589844 37.194847106933594,14.755791664123535 42.426334381103516,27.232088088989258 C45.94468307495117,35.6224365234375 46.81031036376953,37.615055084228516 46.94983673095703,37.643524169921875 C48.152313232421875,37.88915252685547 50.07851028442383,38.441436767578125 52.082340240478516,39.11512756347656 C57.76518630981445,41.02558517456055 58.969810485839844,41.12348937988281 60.296939849853516,39.78192138671875 L60.79121017456055,39.28226089477539 L53.68981170654297,23.238441467285156 C46.12173843383789,6.141165256500244 46.237972259521484,6.39649772644043 45.603309631347656,5.455826282501221 C43.594520568847656,2.4781112670898438 40.22927474975586,1.2023171186447144 35.994747161865234,1.8130419254302979 M34.99627685546875,8.999409675598145 C35.596435546875,9.638385772705078 34.798095703125,10.620676040649414 34.11534881591797,10.083487510681152 C33.82594299316406,9.855977058410645 33.746360778808594,9.48031234741211 33.91716384887695,9.149718284606934 C34.136260986328125,8.726394653320312 34.66999816894531,8.651994705200195 34.99627685546875,8.999409675598145 M27.87029457092285,22.113601684570312 C29.180377960205078,22.580705642700195 29.23579978942871,24.59898567199707 27.953752517700195,25.147602081298828 C26.96283531188965,25.571571350097656 25.945392608642578,24.85561180114746 25.945392608642578,23.734006881713867 C25.945392608642578,22.476329803466797 26.82093620300293,21.73923110961914 27.87029457092285,22.113601684570312 M59.19883728027344,46.893463134765625 C58.594581604003906,47.04031753540039 58.16630172729492,47.72242736816406 58.226036071777344,48.44291687011719 C58.37807083129883,50.27573776245117 60.96717834472656,50.15108871459961 60.96717834472656,48.311153411865234 C60.96717834472656,47.29500198364258 60.171634674072266,46.6571044921875 59.19883728027344,46.893463134765625 M50.35626983642578,48.23330307006836 C49.4078369140625,48.878746032714844 49.466705322265625,50.205867767333984 50.46603775024414,50.70143127441406 C51.71357727050781,51.320133209228516 52.900089263916016,49.99538803100586 52.23114013671875,48.730377197265625 C51.8759651184082,48.058841705322266 50.96677780151367,47.817745208740234 50.35626983642578,48.23330307006836 M54.00379180908203,50.02062225341797 C52.12914276123047,50.46615982055664 52.5218391418457,53.4736328125 54.45450973510742,53.4736328125 C55.478851318359375,53.4736328125 56.14305877685547,52.80036544799805 56.14801788330078,51.756832122802734 C56.15406036376953,50.51295471191406 55.19613265991211,49.737464904785156 54.00379180908203,50.02062225341797 M33.914791107177734,52.868080139160156 C33.333824157714844,53.10293197631836 33.18718338012695,53.989688873291016 33.662044525146484,54.39812469482422 C34.01894760131836,54.70521545410156 34.57640838623047,54.67351150512695 34.8656005859375,54.32955551147461 C35.47286605834961,53.60797882080078 34.76725769042969,52.523685455322266 33.914791107177734,52.868080139160156 M14.538509368896484,53.00480270385742 C13.760438919067383,53.42704772949219 13.918725967407227,54.810882568359375 14.777883529663086,55.09705352783203 C15.96288776397705,55.49169921875 16.805004119873047,53.89975357055664 15.840614318847656,53.0882568359375 C15.536977767944336,52.83271026611328 14.927544593811035,52.793678283691406 14.538509368896484,53.00480270385742 M43.02670669555664,56.128944396972656 C42.78517532348633,56.324546813964844 42.7519645690918,56.774173736572266 42.96331024169922,56.98572540283203 C43.155235290527344,57.17744064331055 43.62384033203125,57.16558074951172 43.770484924316406,56.965030670166016 C44.166419982910156,56.42352294921875 43.53693771362305,55.71575927734375 43.02670669555664,56.128944396972656 M66.1253433227539,61.558616638183594 C65.75593566894531,61.78785705566406 65.59375762939453,62.17192840576172 65.64423370361328,62.69789505004883 C65.78849792480469,64.19905090332031 67.86802673339844,64.01704406738281 67.86802673339844,62.50338363647461 C67.86802673339844,61.67808151245117 66.83548736572266,61.118263244628906 66.1253433227539,61.558616638183594 M64.06501770019531,68.50733184814453 C63.6693000793457,68.81118774414062 63.634132385253906,69.26556396484375 63.9796142578125,69.61103820800781 C64.449951171875,70.08137512207031 65.12494659423828,69.79779052734375 65.12494659423828,69.12992858886719 C65.12494659423828,68.56771850585938 64.47992706298828,68.1888198852539 64.06501770019531,68.50733184814453 M5.507890701293945,70.69426727294922 C5.220643997192383,71.05935668945312 5.327822685241699,71.56786346435547 5.730875015258789,71.75138092041016 C6.415782928466797,72.06343078613281 6.993945598602295,71.19219970703125 6.479186534881592,70.62352752685547 C6.255124092102051,70.3759536743164 5.7280707359313965,70.41434478759766 5.507890701293945,70.69426727294922 " stroke="none" fill="#fbfbfb" fill-rule="evenodd"/><path id="path1" d="M35.454322814941406,0.11694443225860596 C32.188720703125,0.7309021949768066 29.45684051513672,2.87253737449646 27.91084098815918,6.03032112121582 C27.225496292114258,7.43011474609375 0.551143229007721,67.79805755615234 0.2962431013584137,68.5261001586914 C-0.04319191351532936,69.49588012695312 -0.10335831344127655,71.67396545410156 0.18087075650691986,72.70973205566406 C2.1305744647979736,79.8167495727539 11.801461219787598,80.60581970214844 15.221908569335938,73.93722534179688 C15.458477020263672,73.47550964355469 16.83282470703125,70.31341552734375 18.27574920654297,66.91000366210938 L20.89914894104004,60.722320556640625 L37.72340393066406,60.72080993652344 L54.547889709472656,60.719520568847656 L57.03779602050781,66.56366729736328 C60.455867767333984,74.58612060546875 60.589576721191406,74.84209442138672 62.126522064208984,76.31780242919922 C65.59484100341797,79.6474609375 71.54789733886719,79.12816619873047 74.29379272460938,75.25657653808594 C75.77467346191406,73.16864776611328 76.2264633178711,70.39665985107422 75.4466552734375,68.1810531616211 C75.15660858154297,67.3568344116211 48.51094055175781,7.073427677154541 47.90387725830078,5.867934703826904 C46.46052169799805,3.0017120838165283 44.12588119506836,1.0470478534698486 41.2199821472168,0.27156519889831543 C40.19758224487305,-0.0012330412864685059 36.59662628173828,-0.09784567356109619 35.454322814941406,0.11694443225860596 M40.102474212646484,1.8438808917999268 C42.83024597167969,2.321763038635254 44.947731018066406,3.9570484161376953 46.304176330566406,6.634145259857178 C46.460304260253906,6.942526340484619 49.78392791748047,14.414416313171387 53.68981170654297,23.238441467285156 L60.79121017456055,39.28226089477539 L60.296939849853516,39.78192138671875 C58.969810485839844,41.12348937988281 57.76518630981445,41.02558517456055 52.082340240478516,39.11512756347656 C50.07851028442383,38.441436767578125 48.152313232421875,37.88915252685547 46.94983673095703,37.643524169921875 C46.81031036376953,37.615055084228516 45.94468307495117,35.6224365234375 42.426334381103516,27.232088088989258 C37.194847106933594,14.755791664123535 37.760284423828125,16.063072204589844 37.6671257019043,16.229555130004883 C37.61536407470703,16.321853637695312 25.668495178222656,44.73564910888672 24.59153175354004,47.32756805419922 C24.556808471679688,47.41102600097656 24.846431732177734,47.43625259399414 25.871421813964844,47.439273834228516 L27.196168899536133,47.4433708190918 L26.462953567504883,48.139495849609375 C21.178417205810547,53.15726852416992 19.498062133789062,52.361732482910156 15.56156063079834,42.978736877441406 L14.542174339294434,40.5494270324707 L21.80617904663086,24.13080406188965 C25.80133819580078,15.100619316101074 29.21768569946289,7.401864051818848 29.3981876373291,7.022316932678223 C31.3487548828125,2.9178240299224854 35.30552291870117,1.0039180517196655 40.102474212646484,1.8438808917999268 M34.15998458862305,8.848453521728516 C33.96417236328125,8.927166938781738 33.78065490722656,9.391031265258789 33.83930587768555,9.658440589904785 C34.021751403808594,10.48869800567627 35.19252395629883,10.382596969604492 35.19252395629883,9.535735130310059 C35.19252395629883,8.976336479187012 34.683799743652344,8.63754653930664 34.15998458862305,8.848453521728516 M41.5932731628418,29.819259643554688 C43.70902633666992,34.86162185668945 45.44028091430664,38.99565505981445 45.44028091430664,39.006004333496094 C45.44028091430664,39.01657485961914 44.615413665771484,39.025203704833984 43.607242584228516,39.025634765625 C39.30758285522461,39.02714538574219 36.86446762084961,40.206756591796875 32.66508865356445,44.308448791503906 L31.229928970336914,45.710182189941406 L29.225446701049805,45.710182189941406 C27.353164672851562,45.710182189941406 27.22442054748535,45.700260162353516 27.27509880065918,45.55922317504883 C27.38335609436035,45.25731658935547 37.72038650512695,20.624530792236328 37.73311233520508,20.637683868408203 C37.740230560302734,20.645233154296875 39.477298736572266,24.777114868164062 41.5932731628418,29.819259643554688 M26.93738555908203,22.092252731323242 C25.701704025268555,22.52312469482422 25.559158325195312,24.500864028930664 26.721303939819336,25.093687057495117 C27.75686264038086,25.622037887573242 28.882131576538086,24.864667892456055 28.876312255859375,23.643434524536133 C28.87113380432129,22.523773193359375 27.90868377685547,21.753681182861328 26.93738555908203,22.092252731323242 M60.23396301269531,47.00408935546875 C60.70948028564453,47.234188079833984 60.96717834472656,47.69374465942383 60.96717834472656,48.311153411865234 C60.96717834472656,50.15108871459961 58.37807083129883,50.27573776245117 58.226036071777344,48.44291687011719 C58.12813186645508,47.260494232177734 59.190643310546875,46.499027252197266 60.23396301269531,47.00408935546875 M51.7364387512207,48.19922637939453 C52.30899429321289,48.506317138671875 52.583946228027344,49.395015716552734 52.30963897705078,50.051673889160156 C51.87532043457031,51.091548919677734 50.37934112548828,51.12669372558594 49.85508728027344,50.10947036743164 C49.216121673583984,48.86947250366211 50.51908493041992,47.54645538330078 51.7364387512207,48.19922637939453 M54.952877044677734,50.028385162353516 C56.45144271850586,50.4445915222168 56.59916305541992,52.74214172363281 55.16572952270508,53.34100341796875 C53.905887603759766,53.86741256713867 52.65597915649414,52.90085983276367 52.79959487915039,51.510982513427734 C52.915409088134766,50.388954162597656 53.874183654785156,49.728843688964844 54.952877044677734,50.028385162353516 M34.56109619140625,52.87907409667969 C34.88155746459961,52.99078369140625 35.08900833129883,53.33906555175781 35.08900833129883,53.76454544067383 C35.08900833129883,54.85207748413086 33.511085510253906,54.89973449707031 33.39011001586914,53.81587219238281 C33.31031799316406,53.10227966308594 33.8841667175293,52.643157958984375 34.56109619140625,52.87907409667969 M15.840614318847656,53.0882568359375 C16.805004119873047,53.89975357055664 15.96288776397705,55.49169921875 14.777883529663086,55.09705352783203 C14.13588809967041,54.88334274291992 13.835701942443848,54.035404205322266 14.171903610229492,53.385215759277344 C14.451171875,52.84522247314453 15.359493255615234,52.68348693847656 15.840614318847656,53.0882568359375 M43.77975845336914,56.211971282958984 C44.05967712402344,56.578575134277344 43.8192253112793,57.12525177001953 43.37821960449219,57.12525177001953 C43.02735900878906,57.12525177001953 42.82378005981445,56.92124938964844 42.82378005981445,56.569740295410156 C42.82378005981445,56.04613494873047 43.46857833862305,55.8048210144043 43.77975845336914,56.211971282958984 M67.26161193847656,61.520015716552734 C67.56697082519531,61.67441940307617 67.86802673339844,62.16265869140625 67.86802673339844,62.50338363647461 C67.86802673339844,64.01704406738281 65.78849792480469,64.19905090332031 65.64423370361328,62.69789505004883 C65.55106353759766,61.72941207885742 66.42208099365234,61.09518051147461 67.26161193847656,61.520015716552734 M64.89591979980469,68.59381103515625 C65.36949157714844,69.00118255615234 65.0662841796875,69.8631362915039 64.44930267333984,69.8631362915039 C64.18189239501953,69.8631362915039 63.72751998901367,69.42924499511719 63.72751998901367,69.17391204833984 C63.72751998901367,68.5194091796875 64.41329193115234,68.1786880493164 64.89591979980469,68.59381103515625 M6.479186534881592,70.62352752685547 C6.993945598602295,71.19219970703125 6.415782928466797,72.06343078613281 5.730875015258789,71.75138092041016 C5.0793914794921875,71.45442962646484 5.295474052429199,70.46695709228516 6.012083530426025,70.46695709228516 C6.216953277587891,70.46695709228516 6.390120506286621,70.52497100830078 6.479186534881592,70.62352752685547 " stroke="none" fill="#008080" fill-rule="evenodd"/></g></g></svg>