<svg xmlns="http://www.w3.org/2000/svg" width="67.72357789134864" height="63.723577891348555"><rect id="backgroundrect" width="100%" height="100%" x="0" y="0" fill="none" stroke="none" class="" style=""/>

 <g style="">
  <title>background</title>
  <rect fill="none" id="canvas_background" height="141" width="150" y="-1" x="-1"/>
 </g>
 <g style="" class="currentLayer">
  <title>Layer 1</title>
  <g stroke="null" id="svg_1" class="">
   <g stroke="null" id="svg_2">
    <g stroke="null" id="svg_3" stroke-width="0">
     <g stroke="null" id="svg_4" stroke-width="0">
      <path stroke="null" id="svg_5" fill="#008080" class="active-path" d="m60.86322573426854,51.79459809536519 c0,3.2841296765338273 -2.6626877754597893,5.946686787170009 -5.946686787170009,5.946686787170009 l-41.62693817501366,0 c-3.2839990117102196,0 -5.946686787170009,-2.6626877754597893 -5.946686787170009,-5.946686787170009 l0,-41.62693817501366 c0,-3.2839990117102196 2.6626877754597893,-5.946686787170009 5.946686787170009,-5.946686787170009 l41.62693817501366,0 c3.2839990117102196,0 5.946686787170009,2.6626877754597893 5.946686787170009,5.946686787170009 l0,41.62693817501366 z" stroke-width="0"/>
      <path stroke="null" id="svg_6" fill="#FFFFFF" d="m19.495003909996385,17.78685644968884 c0.27648676675203254,-1.659181930159407 2.073912080287456,-3.548725944337639 4.517997605853033,-3.548725944337639 c2.3044048291298873,0 4.101699477841703,1.659181930159407 4.6086789934361665,3.3182331954952073 l5.4397072715755455,18.2533531985784 l0.0921187006428086,0 l5.4397072715755455,-18.2533531985784 c0.5054115377111815,-1.659181930159407 2.302836851246605,-3.3182331954952073 4.6086789934361665,-3.3182331954952073 c2.442648212505903,0 4.2399428612177195,1.8895440141782323 4.517997605853033,3.548725944337639 l4.286067543950927,25.722415845591474 c0.04612468273320766,0.27504945369235745 0.04612468273320766,0.5531041983276713 0.04612468273320766,0.782028969286821 c0,2.0293553754375298 -1.4748138640501836,3.3198011733784902 -3.3182331954952073,3.3198011733784902 c-2.3519668249227696,0 -3.2721085127619998,-1.0599530490985283 -3.59471996224724,-3.226114494852399 l-2.7205722923176103,-18.761900692056145 l-0.09368667852609043,0 l-5.530388659158679,19.31487422556021 c-0.32261144948523984,1.1060777318317354 -1.1967591194148695,2.673010296524728 -3.6869693277136544,2.673010296524728 c-2.4886422304155036,0 -3.36579519128809,-1.5669325646929915 -3.68840664077333,-2.673010296524728 l-5.5319566370419615,-19.31487422556021 l-0.09068138758313352,0 l-2.7205722923176103,18.761900692056145 c-0.32261144948523984,2.166030780930264 -1.2443211152077518,3.226114494852399 -3.59471996224724,3.226114494852399 c-1.8434193314450242,0 -3.3198011733784902,-1.2904457979409596 -3.3198011733784902,-3.3198011733784902 c0,-0.2289247709591497 0,-0.5069795155944636 0.0475619957928827,-0.782028969286821 l4.286067543950927,-25.722415845591474 z" stroke-width="0"/>
     </g>
    </g>
   </g>
  </g>
 </g>
</svg>