<svg xmlns="http://www.w3.org/2000/svg" xmlns:xlink="http://www.w3.org/1999/xlink" version="1.1" style="" xml:space="preserve" width="90" height="75.14285714285711"><rect id="backgroundrect" width="100%" height="100%" x="0" y="0" fill="none" stroke="none" class="" style=""/> <g class="currentLayer" style=""><title>Layer 1</title><g id="svg_1" class=""><g stroke-width="0" id="svg_2">
	<path style="fill:#008080" d="M67.03730051178987,48.17293018169875 c0.0011571467742917793,-0.4970588254902213 -0.1361576037749989,-0.9838319018756282 -0.3971584873096996,-1.4070904775387971 l-2.5304228516484892,-4.073542361098473 c-0.31538678192641406,-0.6264021204832806 -0.4788016208291737,-1.3185044633735714 -0.47661589914440056,-2.0197354085943853 v-12.549899626513332 c0,-8.147213294060755 -6.60396521274696,-14.751178506807713 -14.751178506807713,-14.751178506807713 h-6.808265904341366 c-8.147213294060755,0 -14.751178506807713,6.60396521274696 -14.751178506807713,14.751178506807713 v12.549899626513332 c0.0023142935485835517,0.7012309452208155 -0.1611005453541772,1.393461859974916 -0.47661589914440056,2.0197354085943853 l-2.5304228516484892,4.073542361098473 c-0.26100088353469997,0.4232585756631691 -0.39831563408399084,0.9100316520485754 -0.3971584873096996,1.4070904775387971 l0,0 c0.005657162007648688,1.458133507471445 1.1858182999214473,2.6381660735214334 2.6438232355290827,2.6438232355290827 h37.83111377937618 C65.85148221186842,50.81109625522019 67.0316433497822,49.63093511730639 67.03730051178987,48.17293018169875 z" data-original="#88B337" class="" data-old_color="#88B337" stroke-width="0" id="svg_3"/>
	<polygon style="fill:#008080" points="48.88205933570862,13.371484100818634 54.555540323257446,5.42857152223587 36.40029740333557,5.42857152223587 42.073789834976196,13.371484100818634 42.073789834976196,15.64090758562088 48.88205933570862,15.64090758562088 " data-original="#88B337" class="" data-old_color="#88B337" stroke-width="0" id="svg_4"/>
</g><path style="fill:#07AAAA" d="M66.64014202448014,46.76583970415998 l-2.5304228516484892,-4.073542361098473 c-0.31538678192641406,-0.6264021204832806 -0.4788016208291737,-1.3185044633735714 -0.47661589914440056,-2.0197354085943853 v-12.549899626513332 c0.007971455556232248,-3.2861682671248262 -1.0824465214180488,-6.481436226535842 -3.097681914779077,-9.077687872455153 C57.50575396008469,35.73655951092984 46.83956071025457,45.35887779848497 36.820083935389725,50.81675341722786 h27.573393340871046 c1.465976391163867,0.005657162007648688 2.6597661466415463,-1.1778468443652148 2.6654233086491947,-2.6449803823033737 c0.0023142935485835517,-0.4970588254902213 -0.1350004570007072,-0.9838319018756282 -0.39600134053540775,-1.405933330764505 H66.64014202448014 z" data-original="#6B962A" class="" data-old_color="#6B962A" stroke-width="0" id="svg_5"/><path style="fill:#FFFFFF;" d="M51.15134673499334,30.392084276067564 v-0.7261738867999928 c-0.005657162007648688,-2.1026642607519626 -1.7100057886756206,-3.806884315556125 -3.8126700494275836,-3.8126700494275836 h-0.7261738867999928 V23.583818371726213 h-2.269421968113788 v2.269421968113788 h-0.7261738867999928 c-2.106007129211027,-0.00681430878194046 -3.818327211435231,1.694062877563157 -3.825141520217172,3.8000700067741837 c-0.005657162007648688,1.5987911264798016 0.9871747703346929,3.030824545597775 2.4861941304977804,3.5867692847130663 l2.0651212765193847,0.7715597547249925 v4.3232289206178764 h-0.7261738867999928 c-0.8521743133339871,0 -1.543248081313795,-0.6910737679798096 -1.543248081313795,-1.543248081313795 l0,0 v-0.7261738867999928 h-2.269421968113788 v0.7261738867999928 c0.005657162007648688,2.1026642607519626 1.7100057886756206,3.806884315556125 3.8126700494275836,3.8126700494275836 h3.7218983135775847 c2.106007129211027,0.00681430878194046 3.818327211435231,-1.694062877563157 3.825141520217172,-3.8000700067741837 c0.005657162007648688,-1.5987911264798016 -0.9871747703346929,-3.030824545597775 -2.4861941304977804,-3.5867692847130663 l-2.0651212765193847,-0.7715597547249925 v-4.3232289206178764 h0.7261738867999928 c0.8521743133339871,0 1.543248081313795,0.6910737679798096 1.543248081313795,1.543248081313795 l0,0 v0.7261738867999928 H51.15134673499334 zM47.883435672529565,35.33940102362014 c0.5991448853555189,0.23258650163264688 0.9951462258909246,0.8091027389575701 0.9984890943499901,1.4524763454637961 c0,0.8521743133339871 -0.6910737679798096,1.543248081313795 -1.543248081313795,1.543248081313795 l0,0 h-0.7261738867999928 v-3.472211754058181 L47.883435672529565,35.33940102362014 zM44.34320940251578,31.594874062011957 l-1.2709328737637973,-0.47661589914440056 c-0.5991448853555189,-0.23258650163264688 -0.9951462258909246,-0.8091027389575701 -0.9984890943499901,-1.4524763454637961 c0,-0.8521743133339871 0.6910737679798096,-1.543248081313795 1.543248081313795,-1.543248081313795 l0,0 h0.7261738867999928 V31.594874062011957 z" data-original="#FFFFFF" class="" stroke-width="0" id="svg_6"/><g stroke-width="0" id="svg_7">
	<path style="fill:#FDB62F;" d="M68.17194720991485,16.77555246738484 L68.17194720991485,16.77555246738484 c-0.3858441632944022,-2.3284364536026687 -2.210407482624907,-4.1529997729331765 -4.538843936227576,-4.538843936227576 l0,0 c2.3284364536026687,-0.3858441632944022 4.1529997729331765,-2.210407482624907 4.538843936227576,-4.538843936227576 l0,0 c0.3858441632944022,2.3284364536026687 2.210407482624907,4.1529997729331765 4.538843936227576,4.538843936227576 l0,0 C70.38235469253975,12.622552694451665 68.55779137320926,14.447244585645977 68.17194720991485,16.77555246738484 z" data-original="#FDB62F" class="" stroke-width="0" id="svg_8"/>
	<path style="fill:#FDB62F;" d="M17.11027435701414,39.4696435766589 L17.11027435701414,39.4696435766589 C16.72443019371974,37.14133569492006 14.899866874389232,35.316643803725746 12.571430420786568,34.93092821229516 l0,0 c2.3284364536026687,-0.3858441632944022 4.1529997729331765,-2.210407482624907 4.538843936227576,-4.538843936227576 l0,0 c0.3858441632944022,2.3284364536026687 2.210407482624907,4.1529997729331765 4.538843936227576,4.538843936227576 l0,0 C19.320681839639054,35.316643803725746 17.495989948444734,37.14133569492006 17.11027435701414,39.4696435766589 z" data-original="#FDB62F" class="" stroke-width="0" id="svg_9"/>
</g><path style="fill:#FEC9A3;" d="M77.8963515573353,45.01841950311558 c-0.9316317251686881,-1.5681910228929734 -2.9332385009658357,-2.122978615233974 -4.538843936227576,-1.2594899778846904 l-16.101440220542404,6.876280420296958 c-0.283629531565295,0.12021469266253448 -0.5888591362507031,0.18270061847429034 -0.8964030344846944,0.18154347169999877 h-19.95949613789499 c-1.2538328158770415,0 -2.269421968113788,-1.0155891522367466 -2.269421968113788,-2.269421968113788 c0,-1.2538328158770415 1.0155891522367466,-2.269421968113788 2.269421968113788,-2.269421968113788 h9.077687872455153 c3.7604698727206425,0 6.808265904341366,-3.04779603162072 6.808265904341366,-6.808265904341366 H33.40457237327185 c-3.1295677370040065,0.0023142935485835517 -6.0887777544595005,1.426376257110326 -8.044998662331649,3.8693702413678803 l-7.114652655801064,8.612386297326049 l8.011055690285756,14.683035418988311 l30.829990079319526,-7.4095965113816575 c1.332133080937452,-0.3075438982339917 2.621194587498487,-0.7795312102812245 3.835298697458179,-1.4070904775387971 l15.885825204932704,-8.13589897004546 C78.38775322081786,48.68914621489672 78.87336915042894,46.60923917403916 77.8963515573353,45.01841950311558 z" data-original="#FEC9A3" class="" stroke-width="0" id="svg_10"/><path style="fill:#F7BB8F;" d="M23.70292524574581,61.959562566202386 l2.5530514996790847,4.675001540002572 l30.829990079319526,-7.4095965113816575 c1.332133080937452,-0.3075438982339917 2.621194587498487,-0.7795312102812245 3.835298697458179,-1.4070904775387971 l8.589757649295455,-4.414000656467874 C55.236331991970914,57.77249124935949 36.28676784430503,60.49577189672328 23.70292524574581,61.959562566202386 z" data-original="#F7BB8F" class="" stroke-width="0" id="svg_11"/><polygon style="fill:#008080" points="12.571428537368774,50.81675559282303 12.571428537368774,71.2414191365242 27.32261300086975,71.2414191365242 30.726675271987915,67.8373664021492 17.110275506973267,47.4126837849617 " data-original="#4398D1" class="" data-old_color="#4398D1" stroke-width="0" id="svg_12"/><path style="fill:#07AAAA" d="M12.571430420786568,71.24142255838812 h14.751178506807713 l3.404068666238777,-3.404068666238777 l-2.4963513077387858,-3.744526961608178 C23.183237772224984,66.17607683985779 17.936348581994658,67.73861070074314 12.571430420786568,68.75651414652846 V71.24142255838812 z" data-original="#3E8CC7" class="" data-old_color="#07ACAC" stroke-width="0" id="svg_13"/><circle style="fill:#D9D9D9;" cx="-251.3917541503908" cy="85.74647496711309" r="17.650999069213867" data-original="#D9D9D9" class="" transform="matrix(0.12857186381019703,0,0,0.12857186381019703,55.105671750596,54.54669218995667) " stroke-width="0" id="svg_14"/></g></g></svg>