<svg xmlns="http://www.w3.org/2000/svg" xmlns:xlink="http://www.w3.org/1999/xlink" version="1.1" style="" xml:space="preserve" width="90" height="74"><rect id="backgroundrect" width="100%" height="100%" x="0" y="0" fill="none" stroke="none" class="" style=""/> <g class="currentLayer" style=""><title>Layer 1</title><g id="svg_1" class=""><g stroke-width="0" id="svg_2">
	<g stroke-width="0" id="svg_3">
		<path style="fill:#E69F5F;" d="M69.40326620229683,61.622764458792496 c0,0 -8.485528294201785,3.45736586752755 -24.20156107269285,3.45736586752755 S20.999999999999996,61.622764458792496 20.999999999999996,61.622764458792496 l3.0478120691366812,-38.098011006486395 C24.93001659300079,12.498493416205012 34.13554132911519,4 45.19695125153614,4 h0.00921964231340684 c11.061553979332103,0 20.267078715446498,8.498493416205012 21.149139182399463,19.524753452306104 L69.40326620229683,61.622764458792496 z" data-original="#E69F5F" stroke-width="0" id="svg_4"/>
	</g>
	<g stroke-width="0" id="svg_5">
		<path style="fill:#E09156;" d="M51.36921366653969,4.918794979295446 C49.41464949609746,4.325568619192178 47.34685659349369,4 45.206170893849546,4 h-0.009075585402259874 C34.13554132911519,4 24.929872536089647,12.498493416205012 24.047812069136683,23.524753452306108 L20.999999999999996,61.622764458792496 c0,0 4.15978736628023,1.686906429531151 12.023998202705084,2.703804165317691 L51.36921366653969,4.918794979295446 z" data-original="#E09156" stroke-width="0" id="svg_6"/>
	</g>
	<path style="fill:#FFD7A3;" d="M67.01019279432319,63.63826470264992 l-0.21983084641029346,-0.7529854745652723 c-0.10616994351532562,-0.3637437006461288 -0.46054994493690016,-0.5867437991016555 -0.82501393013876,-0.540357473712328 l-0.7683995640579988,-5.762564559701544 c-0.2523877083295124,-1.893195926293628 -1.426451534177408,-3.538181794681007 -3.134678386558312,-4.392295220871458 l-2.4823886928847814,-1.2411943464423907 c-0.36979409091430204,-0.18496907391272416 -0.7937535804198667,-0.020888252116312418 -0.9746890608204751,0.3298903265265878 l-4.912772840845503,-1.8076261210723206 c-0.9412678574343758,-0.3137559524781261 -1.5759826079479748,-1.194519907230769 -1.5759826079479748,-2.186639854300029 v-3.7169564214144106 l4.96434521503612,-2.0685131871595037 C59.657672106292424,40.42551026806995 61.33607917806588,37.90782763195415 61.33607917806588,35.11629280774795 v-1.1524552891758502 c1.9094743572532367,0 3.45736586752755,-1.5478915102743145 3.45736586752755,-3.45736586752755 s-1.5478915102743145,-3.45736586752755 -3.45736586752755,-3.45736586752755 v-2.3049105783517003 c0,-3.1823612241479635 -2.5799152217312873,-8.06718702423095 -5.76227644587925,-8.06718702423095 h-20.7441952051653 c-3.1823612241479635,0 -5.76227644587925,4.8848258000829885 -5.76227644587925,8.06718702423095 v2.3049105783517003 c-1.9094743572532367,0 -3.45736586752755,1.5478915102743145 -3.45736586752755,3.45736586752755 s1.5478915102743145,3.45736586752755 3.45736586752755,3.45736586752755 v1.1524552891758502 c0,2.791534824206203 1.6784070717734816,5.309217460321994 4.255153041459533,6.3828736191004465 l4.964489271947269,2.0686572440706503 v3.7168123645032627 c0,0.99211994706926 -0.6348588074247475,1.8728839018219032 -1.5759826079479748,2.186639854300029 l-4.912484727023207,1.8074820641611742 c-0.17891868364455085,-0.35121074937634117 -0.6020138316832357,-0.5161559126396342 -0.9712316949529473,-0.3316190094603516 l-2.263710301763664,1.1318551508818318 c-1.9318031784810188,0.9659015892405094 -3.1047145490397408,2.610455286894447 -3.357102257369251,4.5035071562769255 l-0.7683995640579988,5.762564559701544 c-0.36446398520186307,-0.046386325389328235 -0.7186999297122916,0.1766137730661996 -0.82501393013876,0.540357473712328 l-0.21983084641029346,0.7529854745652723 c-0.11769449640708439,0.4032152943004013 0.11380495980611552,0.8253020439610554 0.5168761971953683,0.9429965403681396 l1.6998715515343794,0.49569983125676337 V68.5374961938476 c0,1.272886866894727 1.0320237114569735,2.3049105783517003 2.3049105783517003,2.3049105783517003 h4.6098211567034015 h25.354016361868702 h4.6098211567034015 c1.272886866894727,0 2.3049105783517003,-1.0320237114569735 2.3049105783517003,-2.3049105783517003 v-3.460391062661637 l1.6997274946232328,-0.4958438881679124 C66.89624377760595,64.46371080352212 67.12774323381913,64.0414799969503 67.01019279432319,63.63826470264992 z" data-original="#FFD7A3" class="" stroke-width="0" id="svg_7"/>
	<path style="fill:#FDC88E;" d="M52.11643686465909,43.5676796140079 l-13.8294634701102,0.00014405691114698196 v3.7168123645032627 c0,0.8201159951597644 -0.4346197009304431,1.5633055997670404 -1.1167291752113984,1.9737237396247904 C46.811252997849216,50.924089838639645 52.11643686465909,43.5676796140079 52.11643686465909,43.5676796140079 z" data-original="#FDC88E" class="" stroke-width="0" id="svg_8"/>
	<path style="fill:#FFE1B2;" d="M61.33607917806588,27.049105783517003 v-2.3049105783517003 c0,-3.1823612241479635 -2.5799152217312873,-8.06718702423095 -5.76227644587925,-8.06718702423095 h-20.7441952051653 c-3.1823612241479635,0 -5.76227644587925,4.8848258000829885 -5.76227644587925,8.06718702423095 v2.3049105783517003 c-1.9094743572532367,0 -3.45736586752755,1.5478915102743145 -3.45736586752755,3.45736586752755 s1.5478915102743145,3.45736586752755 3.45736586752755,3.45736586752755 v1.1524552891758502 c0,2.791534824206203 1.6784070717734816,5.309217460321994 4.255153041459533,6.3828736191004465 l7.446445794098607,3.102697752283682 c1.4045548836830688,0.5853032299901859 2.911102060458197,0.8865262311985218 4.432631155992613,0.8865262311985218 l0,0 c1.5215290955344183,0 3.0279322153983985,-0.3013670581194861 4.432487099081466,-0.8865262311985218 l7.4468779648320504,-3.1028418091948295 C59.657672106292424,40.42551026806995 61.33607917806588,37.90782763195415 61.33607917806588,35.11629280774795 v-1.1524552891758502 c1.9094743572532367,0 3.45736586752755,-1.5478915102743145 3.45736586752755,-3.45736586752755 S63.245553535319125,27.049105783517003 61.33607917806588,27.049105783517003 z" data-original="#FFE1B2" class="" stroke-width="0" id="svg_9"/>
	<g stroke-width="0" id="svg_10">
		<path style="fill:#623F33;" d="M53.268892153834955,31.658926940220404 L53.268892153834955,31.658926940220404 c-0.6338504090467177,0 -1.1524552891758502,-0.5186048801291355 -1.1524552891758502,-1.1524552891758502 v-1.1524552891758502 c0,-0.6338504090467177 0.5186048801291355,-1.1524552891758502 1.1524552891758502,-1.1524552891758502 l0,0 c0.6338504090467177,0 1.1524552891758502,0.5186048801291355 1.1524552891758502,1.1524552891758502 v1.1524552891758502 C54.42134744301079,31.140322060091272 53.902598505970516,31.658926940220404 53.268892153834955,31.658926940220404 z" data-original="#623F33" class="" stroke-width="0" id="svg_11"/>
	</g>
	<g stroke-width="0" id="svg_12">
		<g stroke-width="0" id="svg_13">
			<path style="fill:#E4B07B;" d="M45.20156107269285,39.757662427992535 c-2.0489214472435155,0 -3.9654545931429532,-0.5041991890144363 -5.2580772568648175,-1.3836666315667558 c-0.5260958395087776,-0.3578373672891022 -0.662949905098409,-1.0748086140676274 -0.30439225325357244,-1.600904453576403 c0.3572611396445145,-0.5255196118641886 1.0748086140676274,-0.6623736774538219 1.600904453576403,-0.30439225325357244 c0.905973914203365,0.6161314089756404 2.38702301770548,0.9841968169561763 3.961565056541984,0.9841968169561763 s3.0555911423386193,-0.36806540798053833 3.961565056541984,-0.9841968169561763 c0.5272482947979521,-0.35898982257827877 1.243067086287301,-0.22170358625520464 1.600904453576403,0.30439225325357244 c0.35841359493369007,0.5260958395087776 0.22170358625520464,1.243067086287301 -0.30439225325357244,1.600904453576403 C49.1673037796581,39.2534632389781 47.250626576847516,39.757662427992535 45.20156107269285,39.757662427992535 z" data-original="#E4B07B" class="" stroke-width="0" id="svg_14"/>
		</g>
	</g>
	<g stroke-width="0" id="svg_15">
		<path style="fill:#FFD7A3;" d="M35.11700106475958,39.10998255547571 c-0.9337768980547331,-1.0010514755603728 -1.4398488269140781,-2.3223414646004845 -1.4398488269140781,-3.6914583481413947 v-4.958726995501388 c6.285058976431646,-0.4761080913407749 14.770155099899991,-4.639208766577385 19.85449972192155,-8.62267047361371 L52.11643686465909,20.421911643111276 c0,0 -10.228040691435668,6.626617912761136 -23.049105783517,6.626617912761136 l0,0 V27.049105783517003 c-1.9094743572532367,0 -3.45736586752755,1.5478915102743145 -3.45736586752755,3.45736586752755 s1.5478915102743145,3.45736586752755 3.45736586752755,3.45736586752755 v1.1524552891758502 c0,2.791534824206203 1.6784070717734816,5.309217460321994 4.255153041459533,6.3828736191004465 l7.4463017371874605,3.102697752283682 c0.36446398520186307,0.1518359843489189 0.7364189297833688,0.2826396596703777 1.1131277524327243,0.396012448743051 C38.59093347706902,42.590397528786774 36.400404086168024,40.48601417075167 35.11700106475958,39.10998255547571 z" data-original="#FFD7A3" class="" stroke-width="0" id="svg_16"/>
	</g>
	<g stroke-width="0" id="svg_17">
		<path style="fill:#008080" d="M66.11747211594533,63.486284661389845 l-0.9205236622292101,-6.903927466719076 c-0.2523877083295124,-1.893195926293628 -1.426451534177408,-3.538181794681007 -3.134678386558312,-4.392295220871458 l-2.4823886928847814,-1.2411943464423907 c-0.4205021236380378,-0.21032309027459323 -0.9114480768269504,0.030540065163160202 -1.0349048496799134,0.48431933527615006 c-1.5975911446200222,5.871903755262103 -6.965439767778836,10.190009666892868 -13.343559508811431,10.190009666892868 c-6.379560310144064,0 -11.748561388592057,-4.3202667652979665 -13.344711964100611,-10.194475431138422 c-0.12273648829722845,-0.45147435953463916 -0.6110894170854967,-0.6910410027720695 -1.0294306870563288,-0.4818703677866531 l-2.263710301763664,1.1318551508818318 c-1.9318031784810188,0.9659015892405094 -3.1047145490397408,2.610455286894447 -3.357102257369251,4.5035071562769255 l-0.9380986053891421,7.035163312773976 C27.31286196028301,64.66582264986133 32.5245528917585,66.23258561549589 32.5245528917585,66.23258561549589 v4.6098211567034015 h25.354016361868702 v-4.6098211567034015 L66.11747211594533,63.486284661389845 z" data-original="#FF6473" class="" data-old_color="#FF6473" stroke-width="0" id="svg_18"/>
	</g>
	<g stroke-width="0" id="svg_19">
		<path style="fill:#0EA4A4" d="M32.49602962335139,65.88051052465266 c-0.07044382955087401,-1.3704133957412328 -0.527968579353687,-2.6945845230042846 -1.3544230786039175,-3.7966198932786908 l-5.410345411947175,-7.213793882596234 c-0.2611751799094787,0.5379085062228284 -0.44470368471073174,1.1103906711209317 -0.525087441130747,1.7124045028041663 l-0.9134648735830084,6.851490751061575 L32.49602962335139,65.88051052465266 z" data-original="#F05467" class="" data-old_color="#0EA7A7" stroke-width="0" id="svg_20"/>
	</g>
	<g stroke-width="0" id="svg_21">
		<path style="fill:#008080" d="M23.393217464884795,63.63826470264992 c-0.11769449640708439,0.4032152943004013 0.11380495980611552,0.8254461008722034 0.5168761971953683,0.9429965403681396 l8.614459229678332,2.512928758047941 V66.23258561549589 c0,-0.5443910672244443 -0.0855698052213071,-1.0776897522905668 -0.21046714718573997,-1.600904453576403 l-7.758329006731824,-2.2631340741190753 c-0.403071237389254,-0.11755043949593692 -0.8251579870499086,0.11380495980611552 -0.9427084265458457,0.5168761971953683 L23.393217464884795,63.63826470264992 z" data-original="#D4445A" class="active-path" data-old_color="#0EA4A4" stroke-width="0" id="svg_22"/>
	</g>
	<g stroke-width="0" id="svg_23">
		<path style="fill:#0EA4A4" d="M57.907236578945444,65.88051052465266 c0.07044382955087401,-1.3704133957412328 0.527968579353687,-2.6945845230042846 1.3544230786039175,-3.7966198932786908 l5.410345411947175,-7.213793882596234 c0.2611751799094787,0.5379085062228284 0.44470368471073174,1.1103906711209317 0.525087441130747,1.7124045028041663 l0.9134648735830084,6.851490751061575 L57.907236578945444,65.88051052465266 z" data-original="#F05467" class="" data-old_color="#0EA7A7" stroke-width="0" id="svg_24"/>
	</g>
	<g stroke-width="0" id="svg_25">
		<path style="fill:#008080" d="M67.01019279432319,63.63826470264992 c0.11769449640708439,0.4032152943004013 -0.11380495980611552,0.8254461008722034 -0.5168761971953683,0.9429965403681396 L57.878713310538345,67.09419000106598 V66.23258561549589 c0,-0.5443910672244443 0.0855698052213071,-1.0776897522905668 0.21046714718573997,-1.600904453576403 l7.758329006731824,-2.2631340741190753 c0.403071237389254,-0.11755043949593692 0.8251579870499086,0.11380495980611552 0.9427084265458457,0.5168761971953683 L67.01019279432319,63.63826470264992 z" data-original="#D4445A" class="active-path" data-old_color="#0EA4A4" stroke-width="0" id="svg_26"/>
	</g>
	<g stroke-width="0" id="svg_27">
		<path style="fill:#623F33;" d="M37.13437404846191,31.658926940220404 L37.13437404846191,31.658926940220404 c-0.6338504090467177,0 -1.1524552891758502,-0.5186048801291355 -1.1524552891758502,-1.1524552891758502 v-1.1524552891758502 c0,-0.6338504090467177 0.5186048801291355,-1.1524552891758502 1.1524552891758502,-1.1524552891758502 l0,0 c0.6338504090467177,0 1.1524552891758502,0.5186048801291355 1.1524552891758502,1.1524552891758502 v1.1524552891758502 C38.28682933763775,31.140322060091272 37.76822445750861,31.658926940220404 37.13437404846191,31.658926940220404 z" data-original="#623F33" class="" stroke-width="0" id="svg_28"/>
	</g>
	<path style="fill:#E69F5F;" d="M26.72352513678071,20.274973593741358 l0.038895366009685094,7.646252729859472 c10.876440848508231,0 19.89411537248696,-3.3984465908684354 25.810388656382344,-6.458647554363758 c-1.8383102431466276,1.9941798210076618 -4.6036267095240815,4.708644197750229 -8.523703375655733,7.891437592631633 c0,0 10.261173780999474,-4.080267951327097 16.009332649586323,-9.147757914744457 v-0.0004321707334409463 c0,-7.518474249672099 -6.094903853717629,-13.613378103389731 -13.613378103389731,-13.613378103389731 h-6.108445203365445 C32.79120223429156,6.592448173001074 26.68506194150446,12.729704758595915 26.72352513678071,20.274973593741358 z" data-original="#E69F5F" stroke-width="0" id="svg_29"/>
	<path style="fill:#E09156;" d="M50.64547174493727,7.253957508988012 c-1.3230186719738763,-0.42885742448456377 -2.7343442304808514,-0.6613652790757932 -4.200267358312532,-0.6613652790757932 h-6.108445203365445 c-7.5455569489677305,0 -13.651553184843678,6.137112528683696 -13.613234046478583,13.682525420740282 l0.038895366009685094,7.646396786770617 c3.1715569558119396,0 6.183786967895317,-0.29041873287231507 9.008454881665326,-0.7757464665264963 C46.1820124099592,19.172794166555803 50.62861708633307,7.299191379088166 50.64547174493727,7.253957508988012 z" data-original="#E09156" stroke-width="0" id="svg_30"/>
</g></g></g></svg>