<svg xmlns="http://www.w3.org/2000/svg" xmlns:xlink="http://www.w3.org/1999/xlink" version="1.1" style="enable-background:new 0 0 512 512;" xml:space="preserve" width="82.25" height="82.75"><rect id="backgroundrect" width="100%" height="100%" x="0" y="0" fill="none" stroke="none" style="" class=""/> <g class="currentLayer" style=""><title>Layer 1</title><g id="svg_1" class=""><path style="fill:#A3B2B2" d="M58.49935531616211,30.314050674438477 c1.3038034439086914,0 2.3608179092407227,1.0568760633468628 2.3608179092407227,2.3608179092407227 v20.13916015625 h-4.721635818481445 V32.67473220825195 C56.13867950439453,31.370925903320312 57.195556640625,30.314050674438477 58.49935531616211,30.314050674438477 z" data-original="#609399" class="" data-old_color="#A6B5B5" stroke-width="0" id="svg_2"/><path style="fill:#FBFDFD" d="M6.250253200531006,57.6145133972168 c0,-3.4626529216766357 2.833091974258423,-6.295744895935059 6.295744895935059,-6.295744895935059 H70.78180694580078 C74.24445343017578,51.31877517700195 77.07756042480469,54.151859283447266 77.07756042480469,57.6145133972168 v7.659862041473389 c0,3.4626529216766357 -2.833091974258423,6.295744895935059 -6.295744895935059,6.295744895935059 h-58.235809326171875 c-3.4626529216766357,0 -6.295744895935059,-2.833091974258423 -6.295744895935059,-6.295744895935059 V57.6145133972168 z" data-original="#1B4145" class="" data-old_color="#F7FBFB" stroke-width="0" id="svg_3"/><path style="fill:#FEE191;" d="M50.2839469909668,23.2843017578125 c0.30198439955711365,0 0.6042453646659851,-0.11523270606994629 0.8348491191864014,-0.34569811820983887 c4.069526195526123,-4.06994104385376 10.691740989685059,-4.070218086242676 14.761682510375977,0 c0.46120747923851013,0.4607924818992615 1.2084907293319702,0.4607924818992615 1.6694215536117554,0 c0.46106910705566406,-0.46120747923851013 0.46106910705566406,-1.2084907293319702 0,-1.6694215536117554 c-4.99055814743042,-4.990281581878662 -13.110244750976562,-4.990143299102783 -18.10080337524414,0 c-0.46106910705566406,0.46120747923851013 -0.46106910705566406,1.2084907293319702 0,1.6694215536117554 C49.67970275878906,23.168933868408203 49.98182678222656,23.2843017578125 50.2839469909668,23.2843017578125 z" data-original="#FEE191" class="" stroke-width="0" id="svg_4"/><path style="fill:#FFF1CD;" d="M46.17609786987305,19.176597595214844 c0.30198439955711365,0 0.6042453646659851,-0.11523270606994629 0.8348491191864014,-0.34569811820983887 c6.334754943847656,-6.334893226623535 16.64234161376953,-6.335308074951172 22.977096557617188,0 c0.46120747923851013,0.4607924818992615 1.2084907293319702,0.4607924818992615 1.6694215536117554,0 c0.46106910705566406,-0.46120747923851013 0.46106910705566406,-1.2084907293319702 0,-1.6694215536117554 c-3.5094096660614014,-3.5094096660614014 -8.182490348815918,-5.442082405090332 -13.158246994018555,-5.442082405090332 c-4.9754791259765625,0 -9.648697853088379,1.932672381401062 -13.15810775756836,5.442082405090332 c-0.46106910705566406,0.46120747923851013 -0.46106910705566406,1.2084907293319702 0,1.6694215536117554 C45.57185363769531,19.061365127563477 45.87397766113281,19.176597595214844 46.17609786987305,19.176597595214844 z" data-original="#FFF1CD" class="" stroke-width="0" id="svg_5"/><path style="fill:#FFD24D;" d="M54.391517639160156,27.392011642456055 c0.30198439955711365,0 0.6042453646659851,-0.11523270606994629 0.8348491191864014,-0.34569811820983887 c1.8047128915786743,-1.8047128915786743 4.741140842437744,-1.8049894571304321 6.546130180358887,0 c0.46120747923851013,0.4607924818992615 1.2084907293319702,0.4607924818992615 1.6694215536117554,0 c0.46106910705566406,-0.46120747923851013 0.46106910705566406,-1.2084907293319702 0,-1.6694215536117554 c-2.7256062030792236,-2.725052833557129 -7.159920692443848,-2.725052833557129 -9.885250091552734,0 c-0.46106910705566406,0.46120747923851013 -0.46106910705566406,1.2084907293319702 0,1.6694215536117554 C53.78727340698242,27.276779174804688 54.08952713012695,27.392011642456055 54.391517639160156,27.392011642456055 z" data-original="#FFD24D" class="" stroke-width="0" id="svg_6"/><g stroke-width="0" id="svg_7">
	<path style="fill:#008080" d="M41.66390609741211,64.77665328979492 c0.6521092057228088,0 1.1804089546203613,-0.5284380316734314 1.1804089546203613,-1.1804089546203613 v-4.3035888671875 c0,-0.6521092057228088 -0.5284380316734314,-1.1804089546203613 -1.1804089546203613,-1.1804089546203613 c-0.6521092057228088,0 -1.1804089546203613,0.5284380316734314 -1.1804089546203613,1.1804089546203613 v4.3035888671875 C40.48349380493164,64.24821090698242 41.01179504394531,64.77665328979492 41.66390609741211,64.77665328979492 z" data-original="#FFFFFF" class="active-path" data-old_color="#FFFFFF" stroke-width="0" id="svg_8"/>
	<path style="fill:#008080" d="M32.810489654541016,64.77665328979492 c0.6521092057228088,0 1.1804089546203613,-0.5284380316734314 1.1804089546203613,-1.1804089546203613 v-4.3035888671875 c0,-0.6521092057228088 -0.5284380316734314,-1.1804089546203613 -1.1804089546203613,-1.1804089546203613 c-0.6521092057228088,0 -1.1804089546203613,0.5284380316734314 -1.1804089546203613,1.1804089546203613 v4.3035888671875 C31.630083084106445,64.24821090698242 32.158382415771484,64.77665328979492 32.810489654541016,64.77665328979492 z" data-original="#FFFFFF" class="active-path" data-old_color="#FFFFFF" stroke-width="0" id="svg_9"/>
</g><path style="fill:#FFD24D;" d="M15.103665351867676,64.77665328979492 c0.6521092057228088,0 1.1804089546203613,-0.5284380316734314 1.1804089546203613,-1.1804089546203613 v-4.3035888671875 c0,-0.6521092057228088 -0.5284380316734314,-1.1804089546203613 -1.1804089546203613,-1.1804089546203613 c-0.6521092057228088,0 -1.1804089546203613,0.5284380316734314 -1.1804089546203613,1.1804089546203613 v4.3035888671875 C13.923259735107422,64.24821090698242 14.451559066772461,64.77665328979492 15.103665351867676,64.77665328979492 z" data-original="#FFD24D" class="" stroke-width="0" id="svg_10"/><path style="fill:#008080" d="M23.957077026367188,64.77665328979492 c0.6521092057228088,0 1.1804089546203613,-0.5284380316734314 1.1804089546203613,-1.1804089546203613 v-4.3035888671875 c0,-0.6521092057228088 -0.5284380316734314,-1.1804089546203613 -1.1804089546203613,-1.1804089546203613 c-0.6521092057228088,0 -1.1804089546203613,0.5284380316734314 -1.1804089546203613,1.1804089546203613 v4.3035888671875 C22.776670455932617,64.24821090698242 23.304969787597656,64.77665328979492 23.957077026367188,64.77665328979492 z" data-original="#FFFFFF" class="active-path" data-old_color="#FFFFFF" stroke-width="0" id="svg_11"/></g></g></svg>