<svg xmlns="http://www.w3.org/2000/svg" xmlns:xlink="http://www.w3.org/1999/xlink" version="1.1" style="" xml:space="preserve" width="81.4375" height="79.25"><rect id="backgroundrect" width="100%" height="100%" x="0" y="0" fill="none" stroke="none" style="" class=""/> <g class="currentLayer" style=""><title>Layer 1</title><g id="svg_1" class=""><g stroke-width="0" id="svg_2">
	<path style="fill:#029696" d="M8.99134874343872,70.54327392578125 l-0.7804086804389954,-0.7624812126159668 c-1.5733540058135986,-1.5372111797332764 -1.5733540058135986,-4.029820919036865 0,-5.5670318603515625 L48.29209518432617,25.0533390045166 c1.5733540058135986,-1.5372111797332764 4.124569892883301,-1.5372111797332764 5.6979241371154785,0 l0.7804086804389954,0.7624812126159668 c1.5733540058135986,1.5372111797332764 1.5733540058135986,4.029820919036865 0,5.5670318603515625 L14.689271926879883,70.54327392578125 C13.115720748901367,72.08047485351562 10.564702033996582,72.08047485351562 8.99134874343872,70.54327392578125 z" data-original="#1C7287" class="" data-old_color="#029595" stroke-width="0" id="svg_3"/>
	<path style="fill:#008080" d="M36.65315246582031,36.42490768432617 L8.210939884185791,64.21374893188477 c-1.5733540058135986,1.5372111797332764 -1.5733540058135986,4.029820919036865 0,5.5670318603515625 l0.7804086804389954,0.7624812126159668 c1.5733540058135986,1.5372111797332764 4.124569892883301,1.5372111797332764 5.6979241371154785,0 l21.96388053894043,-21.45932960510254 V36.42490768432617 z" data-original="#165C6C" class="active-path" data-old_color="#165C6C" stroke-width="0" id="svg_4"/>
	<path style="fill:#008080" d="M47.93421173095703,38.061832427978516 l6.836215496063232,-6.679174900054932 c1.5733540058135986,-1.5372111797332764 1.5733540058135986,-4.029820919036865 0,-5.5670318603515625 l-0.7804086804389954,-0.7624812126159668 c-1.5733540058135986,-1.5372111797332764 -4.124569892883301,-1.5372111797332764 -5.6979241371154785,0 l-6.836215496063232,6.679174900054932 L47.93421173095703,38.061832427978516 z" data-original="#32A5B9" class="" data-old_color="#32A5B9" stroke-width="0" id="svg_5"/>
	<path style="fill:#F8B242" d="M61.81996154785156,20.804187774658203 c-0.7520052790641785,0 -1.50009286403656,-0.27655255794525146 -2.0738420486450195,-0.8371217846870422 c-1.1474984884262085,-1.120947003364563 -1.1435807943344116,-2.935093641281128 0.0037218283396214247,-4.0560407638549805 l4.548466205596924,-4.443979740142822 c1.1473026275634766,-1.120947003364563 3.008021116256714,-1.120947003364563 4.155323505401611,0 c1.1474984884262085,1.120947003364563 1.1474984884262085,2.938729763031006 0,4.059868335723877 l-4.548466205596924,4.443979740142822 C63.331607818603516,20.531463623046875 62.57196044921875,20.804187774658203 61.81996154785156,20.804187774658203 z" data-original="#F8B242" class="" stroke-width="0" id="svg_6"/>
	<path style="fill:#F8B242" d="M51.852516174316406,19.50831413269043 c-1.4215426445007324,0 -2.67109751701355,-1.009751796722412 -2.8989126682281494,-2.4250502586364746 l-1.2097902297973633,-7.515148162841797 C47.491703033447266,8.002005577087402 48.58670425415039,6.532543659210205 50.18983459472656,6.286229610443115 c1.6029328107833862,-0.24746190011501312 3.106943368911743,0.8235333561897278 3.359048366546631,2.389643907546997 l1.2097902297973633,7.515148162841797 c0.25210490822792053,1.5663018226623535 -0.8430920839309692,3.0355710983276367 -2.4460248947143555,3.2818849086761475 C52.15809631347656,19.496829986572266 52.00432205200195,19.50831413269043 51.852516174316406,19.50831413269043 z" data-original="#F8B242" class="" stroke-width="0" id="svg_7"/>
	<path style="fill:#F8B242" d="M70.82678985595703,31.706480026245117 c-0.151811420917511,0 -0.3055816888809204,-0.011483151465654373 -0.46033141016960144,-0.035406384617090225 l-7.691648483276367,-1.1821904182434082 c-1.6031286716461182,-0.24631358683109283 -2.698129892349243,-1.7157742977142334 -2.4460248947143555,-3.2818849086761475 c0.25210490822792053,-1.566110372543335 1.7553319931030273,-2.63901948928833 3.3592441082000732,-2.389643907546997 l7.691648483276367,1.1821904182434082 c1.6031286716461182,0.24631358683109283 2.698129892349243,1.7157742977142334 2.4460248947143555,3.2818849086761475 C73.49789428710938,30.696544647216797 72.24813842773438,31.706480026245117 70.82678985595703,31.706480026245117 z" data-original="#F8B242" class="" stroke-width="0" id="svg_8"/>
	<g stroke-width="0" id="svg_9">
		<path style="fill:#F8B242" d="M41.28702926635742,23.361486434936523 c-0.7520052790641785,0 -1.4881439208984375,-0.29588255286216736 -2.061697006225586,-0.8564516305923462 l-4.988621234893799,-4.8740234375 c-1.1474984884262085,-1.121138334274292 -1.1474984884262085,-2.9389212131500244 0,-4.059868335723877 c1.1473026275634766,-1.120947003364563 3.008021116256714,-1.121138334274292 4.155323505401611,0 l4.988621234893799,4.8740234375 c1.1474984884262085,1.121138334274292 1.1394672393798828,2.9465768337249756 -0.008031314238905907,4.067715167999268 C42.799068450927734,23.073450088500977 42.03902816772461,23.361486434936523 41.28702926635742,23.361486434936523 z" data-original="#F8B242" class="" stroke-width="0" id="svg_10"/>
		<path style="fill:#D09838" d="M36.65315246582031,12.751627922058105 c-0.8605260252952576,-0.09703263640403748 -1.756311297416687,0.17473529279232025 -2.416250467300415,0.819514274597168 c-1.1474984884262085,1.120947003364563 -1.1474984884262085,2.938729763031006 0,4.059868335723877 l2.416250467300415,2.3607447147369385 V12.751627922058105 z" data-original="#D09838" class="" stroke-width="0" id="svg_11"/>
		<path style="fill:#F8B242" d="M64.17568588256836,45.72434997558594 c-0.7520052790641785,0 -1.4881439208984375,-0.29588255286216736 -2.061697006225586,-0.8564516305923462 l-4.988621234893799,-4.8740234375 c-1.1474984884262085,-1.121138334274292 -1.1474984884262085,-2.9389212131500244 0,-4.059868335723877 c1.1473026275634766,-1.120947003364563 3.008021116256714,-1.121138334274292 4.155323505401611,0 l4.988621234893799,4.8740234375 c1.1474984884262085,1.121138334274292 1.1394672393798828,2.9465768337249756 -0.008031314238905907,4.067715167999268 C65.68752670288086,45.436309814453125 64.92769241333008,45.72434997558594 64.17568588256836,45.72434997558594 z" data-original="#F8B242" class="" stroke-width="0" id="svg_12"/>
	</g>
</g></g></g></svg>