<svg xmlns="http://www.w3.org/2000/svg" height="73.76923079744597" version="1.1" width="89.69230760766203"><rect id="backgroundrect" width="100%" height="100%" x="0" y="0" fill="none" stroke="none" class="" style=""/> <g class="currentLayer" style=""><title>Layer 1</title><g id="svg_1" class=""><g id="surface1" stroke-width="0">
<path d="M75.04721242830485,22.865752705683597 L63.00542385679554,10.801055924301966 L63.00542385679554,59.147951774895304 L79.12090893129943,59.147951774895304 L79.12090893129943,32.66165568109723 C79.12090893129943,28.98400691159044 77.65434298516635,25.458345275542 75.04721242830485,22.865752705683597 zM75.04721242830485,22.865752705683597 " style=" stroke:none;fill-rule:nonzero;fill:rgb(100%,71.764706%,50.980392%);fill-opacity:1;" data-original="#FFB782" stroke-width="0" id="svg_2"/>
<path d="M21.768002775196145,50.338423479679946 L12.664632605923467,26.705961628589826 C11.75094752240429,24.333640307504 12.932923071512606,21.668798768048195 15.306565935506926,20.75467305744731 L58.27443794746359,4.20393199536884 C60.646759268549424,3.2902467990707907 63.31160080800523,4.472222348179104 64.22528600430326,6.845865324952301 L73.32865617357596,30.47832706326355 C74.24234136987403,32.850648497128255 73.0603658207657,35.51549003658408 70.6867228439925,36.429615634406076 L27.720172487723193,52.98035680926341 C25.346529510950003,53.89404189278257 22.683009514402663,52.71074480076578 21.768002775196145,50.338423479679946 zM21.768002775196145,50.338423479679946 " style=" stroke:none;fill-rule:nonzero;fill:rgb(87.058824%,29.803922%,23.529412%);fill-opacity:1;" data-original="#DE4C3C" stroke-width="0" id="svg_3"/>
<path d="M67.50600601171662,15.359349174596208 L15.986763551716617,35.32914053192774 L19.417268008295295,44.23426663369456 L70.93871315258832,24.273726527837862 zM67.50600601171662,15.359349174596208 " style=" stroke:none;fill-rule:nonzero;fill:rgb(47.843137%,28.627451%,18.823529%);fill-opacity:1;" data-original="#7A4930" class="" stroke-width="0" id="svg_4"/>
<path d="M12.35625288583659,33.8233663317079 L12.35625288583659,8.498780775741647 C12.35625288583659,5.95596947991113 14.417991746153104,3.8942305913998942 16.960803041983624,3.8942305913998942 L63.00542385679554,3.8942305913998942 C65.54823515262605,3.8942305913998942 67.60997404113729,5.95596947991113 67.60997404113729,8.498780775741647 L67.60997404113729,33.8233663317079 C67.60997404113729,36.366177514759556 65.54823515262605,38.42791640327079 63.00542385679554,38.42791640327079 L16.960803041983624,38.42791640327079 C14.417991746153104,38.42791640327079 12.35625288583659,36.366177514759556 12.35625288583659,33.8233663317079 zM12.35625288583659,33.8233663317079 " style=" stroke:none;fill-rule:nonzero;fill:rgb(26.27451%,59.607843%,81.960784%);fill-opacity:1;" data-original="#4398D1" stroke-width="0" id="svg_5"/>
<path d="M63.00542385679554,3.8942305913998942 L58.11319933697265,3.8942305913998942 L23.579513525101735,38.42791640327079 L63.00542385679554,38.42791640327079 C65.54823515262605,38.42791640327079 67.60997404113729,36.366177514759556 67.60997404113729,33.8233663317079 L67.60997404113729,8.498780775741647 C67.60997404113729,5.95596947991113 65.54823515262605,3.8942305913998942 63.00542385679554,3.8942305913998942 zM63.00542385679554,3.8942305913998942 " style=" stroke:none;fill-rule:nonzero;fill:rgb(24.313725%,54.901961%,78.039216%);fill-opacity:1;" data-original="#3E8CC7" class="" stroke-width="0" id="svg_6"/>
<path d="M16.960803041983624,22.311990814464085 L21.565353226325385,22.311990814464085 L21.565353226325385,24.61426596302441 L16.960803041983624,24.61426596302441 zM16.960803041983624,22.311990814464085 " style=" stroke:none;fill-rule:nonzero;fill:rgb(36.862745%,70.196078%,81.960784%);fill-opacity:1;" data-original="#5EB3D1" stroke-width="0" id="svg_7"/>
<path d="M16.960803041983624,29.218816034587288 L21.565353226325385,29.218816034587288 L21.565353226325385,31.521091183147597 L16.960803041983624,31.521091183147597 zM16.960803041983624,29.218816034587288 " style=" stroke:none;fill-rule:nonzero;fill:rgb(36.862745%,70.196078%,81.960784%);fill-opacity:1;" data-original="#5EB3D1" stroke-width="0" id="svg_8"/>
<path d="M37.68083841360814,29.218816034587288 L42.28538848517101,29.218816034587288 L42.28538848517101,31.521091183147597 L37.68083841360814,31.521091183147597 zM37.68083841360814,29.218816034587288 " style=" stroke:none;fill-rule:nonzero;fill:rgb(36.862745%,70.196078%,81.960784%);fill-opacity:1;" data-original="#5EB3D1" stroke-width="0" id="svg_9"/>
<path d="M23.867628374885697,22.311990814464085 L28.471738044924642,22.311990814464085 L28.471738044924642,24.61426596302441 L23.867628374885697,24.61426596302441 zM23.867628374885697,22.311990814464085 " style=" stroke:none;fill-rule:nonzero;fill:rgb(36.862745%,70.196078%,81.960784%);fill-opacity:1;" data-original="#5EB3D1" stroke-width="0" id="svg_10"/>
<path d="M30.774013080706073,22.311990814464085 L35.378563265047816,22.311990814464085 L35.378563265047816,24.61426596302441 L30.774013080706073,24.61426596302441 zM30.774013080706073,22.311990814464085 " style=" stroke:none;fill-rule:nonzero;fill:rgb(36.862745%,70.196078%,81.960784%);fill-opacity:1;" data-original="#5EB3D1" stroke-width="0" id="svg_11"/>
<path d="M37.68083841360814,22.311990814464085 L42.28538848517101,22.311990814464085 L42.28538848517101,24.61426596302441 L37.68083841360814,24.61426596302441 zM37.68083841360814,22.311990814464085 " style=" stroke:none;fill-rule:nonzero;fill:rgb(36.862745%,70.196078%,81.960784%);fill-opacity:1;" data-original="#5EB3D1" stroke-width="0" id="svg_12"/>
<path d="M59.55201119034447,8.498780775741647 L61.85428633890479,8.498780775741647 L61.85428633890479,11.952193442192684 L59.55201119034447,11.952193442192684 zM59.55201119034447,8.498780775741647 " style=" stroke:none;fill-rule:nonzero;fill:rgb(36.862745%,70.196078%,81.960784%);fill-opacity:1;" data-original="#5EB3D1" stroke-width="0" id="svg_13"/>
<path d="M54.947461006002726,8.498780775741647 L57.24973604178417,8.498780775741647 L57.24973604178417,11.952193442192684 L54.947461006002726,11.952193442192684 zM54.947461006002726,8.498780775741647 " style=" stroke:none;fill-rule:nonzero;fill:rgb(36.862745%,70.196078%,81.960784%);fill-opacity:1;" data-original="#5EB3D1" stroke-width="0" id="svg_14"/>
<path d="M50.342910821660986,8.498780775741647 L52.64518597022129,8.498780775741647 L52.64518597022129,11.952193442192684 L50.342910821660986,11.952193442192684 zM50.342910821660986,8.498780775741647 " style=" stroke:none;fill-rule:nonzero;fill:rgb(36.862745%,70.196078%,81.960784%);fill-opacity:1;" data-original="#5EB3D1" stroke-width="0" id="svg_15"/>
<path d="M45.73880115162204,8.498780775741647 L48.04063567310067,8.498780775741647 L48.04063567310067,11.952193442192684 L45.73880115162204,11.952193442192684 zM45.73880115162204,8.498780775741647 " style=" stroke:none;fill-rule:nonzero;fill:rgb(36.862745%,70.196078%,81.960784%);fill-opacity:1;" data-original="#5EB3D1" stroke-width="0" id="svg_16"/>
<path d="M58.40087367245377,59.147951774895304 L79.12090893129943,59.147951774895304 L79.12090893129943,70.65888666505742 L58.40087367245377,70.65888666505742 zM58.40087367245377,59.147951774895304 " style="fill:#008080" data-original="#88B337" class="active-path" data-old_color="#88B337" stroke-width="0" id="svg_17"/>
<path d="M55.022353174195956,24.68915813121763 C53.06986882507593,22.743722462058322 49.91029814546109,22.749449486331688 47.964862476301796,24.701933835451726 C46.08374595539461,26.58965840923791 46.01854566575794,29.62279358942033 47.81639957004491,31.590256327067465 L57.24973604178417,41.881329069721836 C54.414404640362555,46.84359976207023 54.53555374260333,52.96273510936161 57.56384292711801,57.80914309666092 L58.40087367245377,59.147951774895304 L73.36522122906693,59.147951774895304 L73.36522122906693,43.03246670039144 zM55.022353174195956,24.68915813121763 " style=" stroke:none;fill-rule:nonzero;fill:rgb(100%,71.764706%,50.980392%);fill-opacity:1;" data-original="#FFB782" stroke-width="0" id="svg_18"/>
<path d="M61.85428633890479,62.601364328567435 L64.15656137468623,62.601364328567435 L64.15656137468623,64.90363947712777 L61.85428633890479,64.90363947712777 zM61.85428633890479,62.601364328567435 " style=" stroke:none;fill-rule:nonzero;fill:rgb(41.960784%,58.823529%,16.470588%);fill-opacity:1;" data-original="#6B962A" class="" stroke-width="0" id="svg_19"/>
<path d="M16.960803041983624,15.865972990383668 L16.960803041983624,10.340689042562019 C16.960803041983624,9.323035816843314 17.78505808308529,8.498780775741647 18.802711196025122,8.498780775741647 L24.327995256625645,8.498780775741647 C25.345648482344345,8.498780775741647 26.16946289636431,9.323035816843314 26.16946289636431,10.340689042562019 L26.16946289636431,15.865972990383668 C26.16946289636431,16.88362610332349 25.345648482344345,17.70788114442515 24.327995256625645,17.70788114442515 L18.802711196025122,17.70788114442515 C17.78505808308529,17.70788114442515 16.960803041983624,16.88362610332349 16.960803041983624,15.865972990383668 zM16.960803041983624,15.865972990383668 " style=" stroke:none;fill-rule:nonzero;fill:rgb(99.215686%,71.372549%,18.431373%);fill-opacity:1;" data-original="#FDB62F" class="" stroke-width="0" id="svg_20"/>
<path d="M16.960803041983624,11.952193442192684 L20.414215708434668,11.952193442192684 L20.414215708434668,14.254468477974124 L16.960803041983624,14.254468477974124 zM16.960803041983624,11.952193442192684 " style=" stroke:none;fill-rule:nonzero;fill:rgb(99.215686%,48.235294%,18.431373%);fill-opacity:1;" data-original="#FD7B2F" stroke-width="0" id="svg_21"/>
<path d="M22.716490856994977,11.952193442192684 L26.16946289636431,11.952193442192684 L26.16946289636431,14.254468477974124 L22.716490856994977,14.254468477974124 zM22.716490856994977,11.952193442192684 " style=" stroke:none;fill-rule:nonzero;fill:rgb(99.215686%,48.235294%,18.431373%);fill-opacity:1;" data-original="#FD7B2F" stroke-width="0" id="svg_22"/>
<path d="M72.21408359839731,43.03246670039144 C71.90922830287501,43.03246670039144 71.61582694312047,42.9113174853718 71.40040169001561,42.69501109088241 L66.79585150567387,38.09046090654066 C66.35398735244138,37.63361836478108 66.36676305667547,36.904961017451974 66.82492725412241,36.46265634991666 C67.2716374030226,36.03224635800979 67.978267569085,36.03224635800979 68.42365606229784,36.46265634991666 L73.02820613386072,41.06720653425841 C73.47711896705395,41.517441023138986 73.47711896705395,42.2460982576892 73.02820613386072,42.69501109088241 C72.81145933784742,42.9113174853718 72.51937963378026,43.03246670039144 72.21408359839731,43.03246670039144 zM72.21408359839731,43.03246670039144 " style=" stroke:none;fill-rule:nonzero;fill:rgb(94.901961%,64.313725%,43.529412%);fill-opacity:1;" data-original="#F2A46F" stroke-width="0" id="svg_23"/>
</g></g></g></svg>