<svg xmlns="http://www.w3.org/2000/svg" height="99.4375" version="1.1" width="81.125" style=""><rect id="backgroundrect" width="100%" height="100%" x="0" y="0" fill="none" stroke="none" style="" class=""/> <g class="currentLayer" style=""><title>Layer 1</title><g id="svg_1" class="selected"><g id="surface1" stroke-width="0">
<path d="M67.1823616027832,94.256103515625 L43.21650314331055,40.892486572265625 C42.76494216918945,39.88691711425781 41.70705032348633,39.23249053955078 40.534027099609375,39.23249053955078 C39.360260009765625,39.23249053955078 38.30237579345703,39.88691711425781 37.85080337524414,40.892486572265625 L13.884947776794434,94.256103515625 C13.355626106262207,95.43448638916016 13.788504600524902,96.7953872680664 14.921899795532227,97.51850891113281 C15.420568466186523,97.83635711669922 15.995489120483398,97.99249267578125 16.56667709350586,97.99249267578125 C17.294116020202637,97.99249267578125 18.017066955566406,97.7398910522461 18.574047088623047,97.24715423583984 L40.53328323364258,77.8004379272461 L62.49325942993164,97.2464599609375 C63.48834991455078,98.12712097167969 65.01200866699219,98.24093627929688 66.14540481567383,97.517822265625 C67.27880859375,96.7953872680664 67.7116813659668,95.43448638916016 67.1823616027832,94.256103515625 zM42.62588119506836,53.60135269165039 L38.441429138183594,53.60135269165039 L40.534027099609375,48.942657470703125 zM24.576725006103516,84.47238159179688 L31.261240005493164,69.5899658203125 L36.322654724121094,74.07168579101562 zM33.65737724304199,64.25394439697266 L36.01762390136719,58.997737884521484 L45.049678802490234,58.997737884521484 L47.409934997558594,64.25325012207031 L40.53328323364258,70.34224700927734 zM44.74464797973633,74.07168579101562 L49.80607223510742,69.58927154541016 L56.49058151245117,84.47307586669922 zM44.74464797973633,74.07168579101562 " style=" stroke:none;fill-rule:nonzero;fill:rgb(23.137255%,28.627451%,34.509804%);fill-opacity:1;" data-original="#3B4958" stroke-width="0" id="svg_2"/>
<path d="M42.62588119506836,53.60135269165039 L40.53328323364258,53.60135269165039 L40.53328323364258,58.997737884521484 L45.04893112182617,58.997737884521484 L47.40918731689453,64.25325012207031 L40.53328323364258,70.34224700927734 L40.53328323364258,77.80113983154297 L62.49325942993164,97.2464599609375 C63.48759841918945,98.12782287597656 65.01200866699219,98.24093627929688 66.14540481567383,97.51850891113281 C67.27880859375,96.7953872680664 67.7116813659668,95.43448638916016 67.1823616027832,94.256103515625 L43.21650314331055,40.892486572265625 C42.76494216918945,39.88691711425781 41.70705032348633,39.23249053955078 40.534027099609375,39.23249053955078 L40.534027099609375,48.942657470703125 zM56.49058151245117,84.47307586669922 L44.74464797973633,74.07168579101562 L49.80607223510742,69.58927154541016 zM56.49058151245117,84.47307586669922 " style=" stroke:none;fill-rule:nonzero;fill:rgb(9.019608%,12.54902%,16.470588%);fill-opacity:1;" data-original="#17202A" stroke-width="0" id="svg_3"/>
<path d="M40.534027099609375,44.62472152709961 C38.13714599609375,44.62472152709961 35.74025917053223,43.77806091308594 33.915306091308594,42.08405303955078 C30.265405654907227,38.696739196777344 30.265405654907227,33.184452056884766 33.915306091308594,29.79644012451172 C37.56446838378906,26.40912628173828 43.502845764160156,26.40912628173828 47.152000427246094,29.79644012451172 C50.801910400390625,33.184452056884766 50.801910400390625,38.696739196777344 47.152000427246094,42.08405303955078 C45.32705307006836,43.77806091308594 42.93091583251953,44.62472152709961 40.534027099609375,44.62472152709961 zM40.534027099609375,44.62472152709961 " style=" stroke:none;fill-rule:nonzero;fill:rgb(100%,43.921569%,27.058824%);fill-opacity:1;" data-original="#FF7045" stroke-width="0" id="svg_4"/>
<path d="M47.152000427246094,29.79644012451172 C45.32780075073242,28.103126525878906 42.93091583251953,27.255775451660156 40.534027099609375,27.255775451660156 L40.534027099609375,44.62472152709961 C42.93091583251953,44.62472152709961 45.32780075073242,43.777366638183594 47.152000427246094,42.08405303955078 C50.80116271972656,38.696739196777344 50.80116271972656,33.184452056884766 47.152000427246094,29.79644012451172 zM47.152000427246094,29.79644012451172 " style=" stroke:none;fill-rule:nonzero;fill:rgb(96.470588%,29.803922%,10.980392%);fill-opacity:1;" data-original="#F64C1C" class="" stroke-width="0" id="svg_5"/>
<path d="M52.63807678222656,49.87467956542969 C51.894187927246094,49.87467956542969 51.15105056762695,49.611656188964844 50.582847595214844,49.08423614501953 C49.447959899902344,48.03076934814453 49.447959899902344,46.32219696044922 50.582847595214844,45.26873016357422 C53.26682662963867,42.77664566040039 54.745628356933594,39.463584899902344 54.745628356933594,35.94025421142578 C54.745628356933594,32.41691017150879 53.26682662963867,29.103849411010742 50.582847595214844,26.61176300048828 C45.04145812988281,21.46798324584961 36.025108337402344,21.46798324584961 30.483707427978516,26.61176300048828 C27.799739837646484,29.103849411010742 26.320938110351562,32.41691017150879 26.320938110351562,35.94025421142578 C26.320938110351562,39.463584899902344 27.799739837646484,42.77664566040039 30.483707427978516,45.26873016357422 C31.619354248046875,46.32219696044922 31.619354248046875,48.03076934814453 30.483707427978516,49.08423614501953 C29.34881591796875,50.1376953125 27.508163452148438,50.1376953125 26.373266220092773,49.08423614501953 C22.59103775024414,45.57338333129883 20.50815200805664,40.905677795410156 20.50815200805664,35.94025421142578 C20.50815200805664,30.974821090698242 22.59103775024414,26.307109832763672 26.373266220092773,22.7962589263916 C34.181467056274414,15.54832935333252 46.88584518432617,15.54832935333252 54.69329071044922,22.7962589263916 C58.47627639770508,26.307109832763672 60.55915832519531,30.974821090698242 60.55915832519531,35.94025421142578 C60.55915832519531,40.905677795410156 58.475528717041016,45.57338333129883 54.69329071044922,49.08423614501953 C54.12584686279297,49.6109619140625 53.381961822509766,49.87467956542969 52.63807678222656,49.87467956542969 zM52.63807678222656,49.87467956542969 " style="fill:#16ADAD" data-original="#00C8C8" class="active-path" data-old_color="#15AFAF" stroke-width="0" id="svg_6"/>
<path d="M50.582847595214844,26.61176300048828 C53.267574310302734,29.103849411010742 54.745628356933594,32.41691017150879 54.745628356933594,35.94025421142578 C54.745628356933594,39.463584899902344 53.267574310302734,42.77664566040039 50.582847595214844,45.26873016357422 C49.447959899902344,46.32219696044922 49.447959899902344,48.03076934814453 50.582847595214844,49.08423614501953 C51.15105056762695,49.611656188964844 51.894935607910156,49.87467956542969 52.638824462890625,49.87467956542969 C53.381961822509766,49.87467956542969 54.12659454345703,49.6109619140625 54.69403839111328,49.08423614501953 C58.47627639770508,45.57338333129883 60.55915832519531,40.905677795410156 60.55915832519531,35.94025421142578 C60.55915832519531,30.974821090698242 58.47627639770508,26.307109832763672 54.69403839111328,22.7962589263916 C50.789947509765625,19.172298431396484 45.6619873046875,17.360313415527344 40.534027099609375,17.360313415527344 L40.534027099609375,22.75393295288086 C44.1727180480957,22.75393295288086 47.81215286254883,24.039875030517578 50.582847595214844,26.61176300048828 zM50.582847595214844,26.61176300048828 " style="fill:#008080" data-original="#00A0AA" class="" data-old_color="#00A0AA" stroke-width="0" id="svg_7"/>
<path d="M60.510562896728516,57.18159103393555 C59.76667785644531,57.18159103393555 59.02279281616211,56.91857147216797 58.45533752441406,56.39183807373047 C57.3204460144043,55.33768844604492 57.3204460144043,53.629798889160156 58.45533752441406,52.57564926147461 C63.24237823486328,48.1320915222168 65.87850570678711,42.224239349365234 65.87850570678711,35.94025421142578 C65.87850570678711,29.656251907348633 63.24237823486328,23.748401641845703 58.45533752441406,19.304845809936523 C48.573238372802734,10.131813049316406 32.49407196044922,10.131813049316406 22.611967086791992,19.304845809936523 C17.824928283691406,23.748401641845703 15.188803672790527,29.656251907348633 15.188803672790527,35.94025421142578 C15.188803672790527,42.224239349365234 17.824928283691406,48.1320915222168 22.611967086791992,52.57564926147461 C23.74761199951172,53.62910461425781 23.74761199951172,55.33768844604492 22.611967086791992,56.39183807373047 C21.47707748413086,57.4453125 19.63642406463623,57.4453125 18.5015287399292,56.39183807373047 C12.616225242614746,50.928829193115234 9.375274181365967,43.66563415527344 9.375274181365967,35.94025421142578 C9.375274181365967,28.21485710144043 12.616225242614746,20.951663970947266 18.5015287399292,15.4886474609375 C30.649681091308594,4.2121663093566895 50.41688537597656,4.2121663093566895 62.56577682495117,15.4886474609375 C68.45108795166016,20.951663970947266 71.69204711914062,28.21485710144043 71.69204711914062,35.94025421142578 C71.69204711914062,43.66563415527344 68.45108795166016,50.928829193115234 62.56577682495117,56.39183807373047 C61.99833679199219,56.91857147216797 61.25444793701172,57.18159103393555 60.510562896728516,57.18159103393555 zM60.510562896728516,57.18159103393555 " style="fill:#16ADAD" data-original="#00C8C8" class="active-path" data-old_color="#15AFAF" stroke-width="0" id="svg_8"/>
<path d="M40.534027099609375,7.031111240386963 L40.534027099609375,12.425423622131348 C47.0241584777832,12.425423622131348 53.51428985595703,14.71833324432373 58.45533752441406,19.304845809936523 C63.24237823486328,23.748401641845703 65.87850570678711,29.656251907348633 65.87850570678711,35.94025421142578 C65.87850570678711,42.224239349365234 63.24237823486328,48.1320915222168 58.45533752441406,52.57564926147461 C57.3204460144043,53.62910461425781 57.3204460144043,55.33768844604492 58.45533752441406,56.39183807373047 C59.02279281616211,56.91857147216797 59.76667785644531,57.18159103393555 60.510562896728516,57.18159103393555 C61.25444793701172,57.18159103393555 61.99833679199219,56.91857147216797 62.56577682495117,56.39183807373047 C68.45108795166016,50.928829193115234 71.69204711914062,43.66563415527344 71.69204711914062,35.94025421142578 C71.69204711914062,28.21485710144043 68.45108795166016,20.951663970947266 62.56577682495117,15.4886474609375 C56.491329193115234,9.850055694580078 48.5126838684082,7.031111240386963 40.534027099609375,7.031111240386963 zM40.534027099609375,7.031111240386963 " style="fill:#008080" data-original="#00A0AA" class="" data-old_color="#00A0AA" stroke-width="0" id="svg_9"/>
</g></g></g></svg>