<svg width="52" height="52" xmlns="http://www.w3.org/2000/svg">

 <g>
  <title>background</title>
  <rect fill="none" id="canvas_background" height="54" width="54" y="-1" x="-1"/>
 </g>
 <g>
  <title>Layer 1</title>
  <path fill="#008bc9" stroke="null" id="svg_1" d="m49.617554,42.60398q0,3.853854 -2.382774,6.085877t-6.332305,2.232024l-28.528012,0q-3.94953,0 -6.332305,-2.232024t-2.382774,-6.085877q0,-1.702119 0.114243,-3.323949t0.45697,-3.500584t0.86498,-3.484526t1.403552,-3.131256t2.023726,-2.601351t2.790784,-1.718176t3.639443,-0.642309q0.293767,0 1.370911,0.690482t2.431736,1.541541t3.525201,1.541541t4.35754,0.690482t4.35754,-0.690482t3.525201,-1.541541t2.431736,-1.541541t1.370911,-0.690482q1.991086,0 3.639443,0.642309t2.790784,1.718176t2.023726,2.601351t1.403552,3.131256t0.86498,3.484526t0.45697,3.500584t0.114243,3.323949zm-10.445039,-28.679094q0,5.106356 -3.672084,8.719344t-8.861963,3.612988t-8.861963,-3.612988t-3.672084,-8.719344t3.672084,-8.719344t8.861963,-3.612988t8.861963,3.612988t3.672084,8.719344z"/>
 </g>
</svg>