<svg xmlns="http://www.w3.org/2000/svg" xmlns:xlink="http://www.w3.org/1999/xlink" version="1.1" style="" xml:space="preserve" width="92.71222686767578" height="73.13668823242188"><rect id="backgroundrect" width="100%" height="100%" x="0" y="0" fill="none" stroke="none" class="" style=""/> <g class="currentLayer" style=""><title>Layer 1</title><g id="svg_1" class="selected"><path style="fill:#C2DFF6;" d="M25.672656522088605,36.40319566467689 c-0.6120212087154252,0 -1.2240424174308506,-0.207797297062447 -1.6910116565972757,-0.6233918911873415 c-0.9342187719938239,-0.8303166141169525 -0.9342187719938239,-2.1779450355579306 0,-3.0082616496748784 L52.395573864758504,7.498928207598929 c0.9342187719938239,-0.8309398813546925 2.4479446880312135,-0.8309398813546925 3.382163460025032,0 c0.9342187719938239,0.8303166141169525 0.9342187719938239,2.1779450355579306 0,3.0082616496748784 L27.363668178685863,35.780053080384604 C26.896418645858457,36.195523021062 26.284677730804013,36.40319566467689 25.672656522088605,36.40319566467689 z" data-original="#C2DFF6" id="svg_2"/><path style="fill:#00B6BD" d="M20.60088287377106,47.29653579244538 C15.325055440271644,47.29653579244538 11.033479197248123,43.47939792163184 11.033479197248123,38.78694354213648 S15.325055440271644,30.27722663838003 20.60088287377106,30.27722663838003 s9.567403676522972,3.81713787081358 9.567403676522972,8.509716903756473 S25.876570160440053,47.29653579244538 20.60088287377106,47.29653579244538 zM20.60088287377106,34.53202276353447 c-2.637843643334488,0 -4.783631764846246,1.9085689354067896 -4.783631764846246,4.254796125154461 c0,2.3462271897476765 2.1457881215117602,4.254796125154461 4.783631764846246,4.254796125154461 s4.783631764846246,-1.9085689354067896 4.783631764846246,-4.254796125154461 C25.38451463861732,36.440591698941276 23.23872651710556,34.53202276353447 20.60088287377106,34.53202276353447 z" data-original="#00B6BD" class="" id="svg_3"/><path style="fill:#0CC1C1" d="M82.78865640409421,28.14976624907901 c0,-1.174858743139507 -1.0708619317138894,-2.1274603893010062 -2.3918859558383647,-2.1274603893010062 h-43.053106324107645 c-1.3208838772939928,0 -2.3918859558383647,0.9524769927139515 -2.3918859558383647,2.1274603893010062 v38.29353908673281 c0,1.174858743139507 1.0708619317138894,2.1274603893010062 2.3918859558383647,2.1274603893010062 h43.053106324107645 c1.3208838772939928,0 2.3918859558383647,-0.9524769927139515 2.3918859558383647,-2.1274603893010062 V28.14976624907901 z" data-original="#FF5023" class="active-path" data-old_color="#0CC0C0" id="svg_4"/><path style="fill:#008080" d="M80.39677044825585,26.02243051322559 h-21.526553162053823 V68.5707657251128 h21.526553162053823 c1.320463436802546,0 2.3918859558383647,-0.9529756065041459 2.3918859558383647,-2.1274603893010062 v-38.29353908673281 C82.78865640409421,26.975281466282137 81.71723388505839,26.02243051322559 80.39677044825585,26.02243051322559 z" data-original="#CD2A00" class="" data-old_color="#005BFF" id="svg_5"/><g id="svg_6">
	<path style="fill:#FFDA44;" d="M39.73555007998657,32.40468702768103 c0,-1.174484782796864 1.0714225190358206,-2.1274603893010062 2.3918859558383647,-2.1274603893010062 H46.91106780067117 c1.320463436802546,0 2.3918859558383647,0.9529756065041459 2.3918859558383647,2.1274603893010062 c0,1.174484782796864 -1.0714225190358206,2.1274603893010062 -2.3918859558383647,2.1274603893010062 h-2.3918859558383647 V36.65948315283548 c0,1.174484782796864 -1.0714225190358206,2.1274603893010062 -2.3918859558383647,2.1274603893010062 c-1.320463436802546,0 -2.3918859558383647,-0.9529756065041459 -2.3918859558383647,-2.1274603893010062 V32.40468702768103 z" data-original="#FFDA44" class="" id="svg_7"/>
	<path style="fill:#FFDA44;" d="M39.73555007998657,45.16920005659195 c0,-1.174484782796864 1.0714225190358206,-2.1274603893010062 2.3918859558383647,-2.1274603893010062 c1.320463436802546,0 2.3918859558383647,0.9529756065041459 2.3918859558383647,2.1274603893010062 V49.42399618174646 c0,1.174484782796864 -1.0714225190358206,2.1274603893010062 -2.3918859558383647,2.1274603893010062 c-1.320463436802546,0 -2.3918859558383647,-0.9529756065041459 -2.3918859558383647,-2.1274603893010062 V45.16920005659195 z" data-original="#FFDA44" class="" id="svg_8"/>
	<path style="fill:#FFDA44;" d="M46.91106780067117,64.31596959995836 h-4.783631764846246 c-1.320463436802546,0 -2.3918859558383647,-0.9529756065041459 -2.3918859558383647,-2.1274603893010062 v-4.254796125154461 c0,-1.174484782796864 1.0714225190358206,-2.1274603893010062 2.3918859558383647,-2.1274603893010062 c1.320463436802546,0 2.3918859558383647,0.9529756065041459 2.3918859558383647,2.1274603893010062 v2.1274603893010062 H46.91106780067117 c1.320463436802546,0 2.3918859558383647,0.9529756065041459 2.3918859558383647,2.1274603893010062 C49.30295375650955,63.36299399345417 48.23153123747376,64.31596959995836 46.91106780067117,64.31596959995836 z" data-original="#FFDA44" class="" id="svg_9"/>
	<path style="fill:#FFDA44;" d="M61.262103242040354,64.31596959995836 h-4.783631764846246 c-1.320463436802546,0 -2.3918859558383647,-0.9529756065041459 -2.3918859558383647,-2.1274603893010062 c0,-1.174484782796864 1.0714225190358206,-2.1274603893010062 2.3918859558383647,-2.1274603893010062 H61.262103242040354 c1.320463436802546,0 2.3918859558383647,0.9529756065041459 2.3918859558383647,2.1274603893010062 C63.65398919787874,63.36299399345417 62.58256667884295,64.31596959995836 61.262103242040354,64.31596959995836 z" data-original="#FFDA44" class="" id="svg_10"/>
	<path style="fill:#FFDA44;" d="M61.262103242040354,34.53202276353447 h-4.783631764846246 c-1.320463436802546,0 -2.3918859558383647,-0.9529756065041459 -2.3918859558383647,-2.1274603893010062 c0,-1.174484782796864 1.0714225190358206,-2.1274603893010062 2.3918859558383647,-2.1274603893010062 H61.262103242040354 c1.320463436802546,0 2.3918859558383647,0.9529756065041459 2.3918859558383647,2.1274603893010062 C63.65398919787874,33.57917181047791 62.58256667884295,34.53202276353447 61.262103242040354,34.53202276353447 z" data-original="#FFDA44" class="" id="svg_11"/>
</g><g id="svg_12">
	<path style="fill:#FFA733" d="M78.00502463924792,62.18850921065736 c0,1.174484782796864 -1.0714225190358206,2.1274603893010062 -2.3918859558383647,2.1274603893010062 h-4.783631764846246 c-1.320463436802546,0 -2.3918859558383647,-0.9529756065041459 -2.3918859558383647,-2.1274603893010062 c0,-1.174484782796864 1.0714225190358206,-2.1274603893010062 2.3918859558383647,-2.1274603893010062 h2.3918859558383647 v-2.1274603893010062 c0,-1.174484782796864 1.0714225190358206,-2.1274603893010062 2.3918859558383647,-2.1274603893010062 c1.320463436802546,0 2.3918859558383647,0.9529756065041459 2.3918859558383647,2.1274603893010062 V62.18850921065736 z" data-original="#FFA733" class="" id="svg_13"/>
	<path style="fill:#FFA733" d="M78.00502463924792,49.42399618174646 c0,1.174484782796864 -1.0714225190358206,2.1274603893010062 -2.3918859558383647,2.1274603893010062 c-1.320463436802546,0 -2.3918859558383647,-0.9529756065041459 -2.3918859558383647,-2.1274603893010062 v-4.254796125154461 c0,-1.174484782796864 1.0714225190358206,-2.1274603893010062 2.3918859558383647,-2.1274603893010062 c1.320463436802546,0 2.3918859558383647,0.9529756065041459 2.3918859558383647,2.1274603893010062 V49.42399618174646 z" data-original="#FFA733" class="" id="svg_14"/>
	<path style="fill:#FFA733" d="M78.00502463924792,36.65948315283548 c0,1.174484782796864 -1.0714225190358206,2.1274603893010062 -2.3918859558383647,2.1274603893010062 c-1.320463436802546,0 -2.3918859558383647,-0.9529756065041459 -2.3918859558383647,-2.1274603893010062 v-2.1274603893010062 h-2.3918859558383647 c-1.320463436802546,0 -2.3918859558383647,-0.9529756065041459 -2.3918859558383647,-2.1274603893010062 c0,-1.174484782796864 1.0714225190358206,-2.1274603893010062 2.3918859558383647,-2.1274603893010062 H75.61313868340957 c1.320463436802546,0 2.3918859558383647,0.9529756065041459 2.3918859558383647,2.1274603893010062 V36.65948315283548 z" data-original="#FFA733" class="" id="svg_15"/>
	<path style="fill:#FFA733" d="M61.262103242040354,30.27722663838003 h-2.3918859558383647 v4.254796125154461 H61.262103242040354 c1.320463436802546,0 2.3918859558383647,-0.9529756065041459 2.3918859558383647,-2.1274603893010062 C63.65398919787874,31.23020224488416 62.58256667884295,30.27722663838003 61.262103242040354,30.27722663838003 z" data-original="#FFA733" class="" id="svg_16"/>
	<path style="fill:#FFA733" d="M61.262103242040354,60.06104882135634 h-2.3918859558383647 v4.254796125154461 H61.262103242040354 c1.320463436802546,0 2.3918859558383647,-0.9529756065041459 2.3918859558383647,-2.1274603893010062 C63.65398919787874,61.01402442786046 62.58256667884295,60.06104882135634 61.262103242040354,60.06104882135634 z" data-original="#FFA733" class="" id="svg_17"/>
</g><path style="fill:#E6F4FF;" d="M54.0865855213558,45.16920005659195 c-0.6120212087154252,0 -1.2240424174308506,-0.207797297062447 -1.6910116565972757,-0.6233918911873415 L23.981504718660815,19.273069595741383 c-0.9342187719938239,-0.8303166141169525 -0.9342187719938239,-2.1779450355579306 0,-3.0082616496748784 c0.9342187719938239,-0.8309398813546925 2.4479446880312135,-0.8309398813546925 3.382163460025032,0 l28.413928999267192,25.27273856966326 c0.9342187719938239,0.8303166141169525 0.9342187719938239,2.1779450355579306 0,3.0082616496748784 C55.31062793878662,44.961402759529534 54.69860673007121,45.16920005659195 54.0865855213558,45.16920005659195 z" data-original="#E6F4FF" class="" id="svg_18"/><path style="fill:#00D7DF" d="M20.60088287377106,21.767509734623562 C15.325055440271644,21.767509734623562 11.033479197248123,17.950371863809963 11.033479197248123,13.257917484314621 S15.325055440271644,4.748200580558158 20.60088287377106,4.748200580558158 s9.567403676522972,3.81713787081358 9.567403676522972,8.509716903756473 S25.876570160440053,21.767509734623562 20.60088287377106,21.767509734623562 zM20.60088287377106,9.002996705712654 c-2.637843643334488,0 -4.783631764846246,1.9085689354067896 -4.783631764846246,4.254796125154461 S17.962899083606136,17.51271360946907 20.60088287377106,17.51271360946907 S25.38451463861732,15.604144674062322 25.38451463861732,13.257917484314621 S23.23872651710556,9.002996705712654 20.60088287377106,9.002996705712654 z" data-original="#00D7DF" class="" id="svg_19"/></g></g></svg>