<svg xmlns="http://www.w3.org/2000/svg" xmlns:xlink="http://www.w3.org/1999/xlink" version="1.1" style="enable-background:new 0 0 512 512;" xml:space="preserve" width="69.34710749012629" height="65.34710749012629"><rect id="backgroundrect" width="100%" height="100%" x="0" y="0" fill="none" stroke="none" class="" style=""/> <g class="currentLayer" style=""><title>Layer 1</title><g id="svg_1" class=""><path style="fill:#FEDB41;" d="M65.52720556069956,50.38403492017892 L41.80992880444895,7.955984498576603 c-1.4161133843847111,-2.5394321154734336 -3.972984772857102,-4.06296115746952 -6.883884507425672,-4.06296115746952 s-5.467771123040963,1.5235290419960874 -6.883884507425672,4.06296115746952 l-23.677940273351005,42.38898223521038 l-0.03933648289957538,0.039068186391899025 c-1.37664577987547,2.461295742689635 -1.2982350572956491,5.352341535690159 0.11814057030839129,7.774569091987895 c1.4161133843847111,2.38328959719381 3.972984772857102,3.8288124936940724 6.765743937117281,3.8288124936940724 h47.43455351250117 c2.792759164260179,0 5.349761674342237,-1.4455228965002624 6.765743937117281,-3.8288124936940724 C66.82530949638553,55.736376455869035 66.90385134057503,52.84533066286851 65.52720556069956,50.38403492017892 z" data-original="#FEDB41" class="" stroke-width="0" id="svg_2"/><path style="fill:#FCBF29;" d="M65.40906499039117,58.15860401216678 c-1.4161133843847111,2.38328959719381 -3.972984772857102,3.8288124936940724 -6.765743937117281,3.8288124936940724 H34.926044297023296 V3.893023341107087 c2.91089973456857,0 5.467771123040963,1.5235290419960874 6.883884507425672,4.06296115746952 l23.717276756250584,42.42805042160228 C66.90385134057503,52.84533066286851 66.82530949638553,55.736376455869035 65.40906499039117,58.15860401216678 z" data-original="#FCBF29" class="" stroke-width="0" id="svg_3"/><g stroke-width="0" id="svg_4">
	<path style="fill:#57555C;" d="M38.85969258698082,50.26696058829114 c0,2.148750251554443 -1.7701417304808877,3.906818639189897 -3.933648289957527,3.906818639189897 s-3.933648289957527,-1.7580683876354537 -3.933648289957527,-3.906818639189897 s1.7701417304808877,-3.906818639189897 3.933648289957527,-3.906818639189897 S38.85969258698082,48.11821033673673 38.85969258698082,50.26696058829114 z" data-original="#57555C" stroke-width="0" id="svg_5"/>
	<path style="fill:#57555C;" d="M38.85969258698082,17.059002155177037 v19.53409319594948 c0,2.148750251554443 -1.7701417304808877,3.906818639189897 -3.933648289957527,3.906818639189897 s-3.933648289957527,-1.7580683876354537 -3.933648289957527,-3.906818639189897 v-19.53409319594948 c0,-2.148750251554443 1.7701417304808877,-3.906818639189897 3.933648289957527,-3.906818639189897 S38.85969258698082,14.91025190362259 38.85969258698082,17.059002155177037 z" data-original="#57555C" stroke-width="0" id="svg_6"/>
</g><path style="fill:#0DC9C9" d="M67.25801080828087,49.4463984467733 L43.54073405203026,6.979279838779133 c-1.7701417304808877,-3.1254549113519174 -4.9958644498557225,-5.039665817266994 -8.614689755006985,-5.039665817266994 s-6.844548024526098,1.9143411332030498 -8.614689755006985,5.039665817266994 L2.594077785765733,49.4463984467733 c-1.691468764681737,3.047448765856093 -1.6520011601724964,6.680790100302698 0.15747705320796648,9.688779997902971 C4.521565447844914,62.1435590241405 7.707820562710516,63.94082582545579 11.208767540772726,63.94082582545579 h47.43455351250117 c3.5009469780621987,0 6.687202092927795,-1.797266801315326 8.45721270179902,-4.805517153491547 C68.91014309006302,56.127188547076024 68.94947957296262,52.49384721262939 67.25801080828087,49.4463984467733 zM63.71759622570943,57.142961393265416 c-1.061953916678867,1.7970063467393795 -2.989572700367721,2.891045793000524 -5.074275172435545,2.891045793000524 H11.208767540772726 c-2.0847024720678244,0 -4.012452377366343,-1.094039446261144 -5.074275172435545,-2.891045793000524 c-0.5507107605940545,-0.9378969279815212 -0.8261972625007462,-1.9534093195949485 -0.8261972625007462,-2.969182165784322 c0,-0.976704659797475 0.23601889739745147,-1.9534093195949485 0.7473931750919307,-2.8521078338965973 l23.717276756250584,-42.42805042160228 c1.0622161598981974,-1.9143411332030498 2.989572700367721,-3.0471883112801468 5.153079259844361,-3.0471883112801468 s4.090863099946163,1.1328471780770972 5.153079259844361,3.0471883112801468 l23.717276756250584,42.42805042160228 C64.8191488685072,53.15800638129169 64.77981238560763,55.345824819238004 63.71759622570943,57.142961393265416 z" data-original="#FD4E26" class="active-path" data-old_color="#0DCACA" stroke-width="0" id="svg_7"/><g stroke-width="0" id="svg_8">
	<path style="fill:#3C3A41;" d="M38.85969258698082,50.26696058829114 c0,2.148750251554443 -1.7701417304808877,3.906818639189897 -3.933648289957527,3.906818639189897 v-7.813637278379794 C37.08955085649993,46.36014194910127 38.85969258698082,48.11821033673673 38.85969258698082,50.26696058829114 z" data-original="#3C3A41" class="" stroke-width="0" id="svg_9"/>
	<path style="fill:#3C3A41;" d="M38.85969258698082,17.059002155177037 v19.53409319594948 c0,2.148750251554443 -1.7701417304808877,3.906818639189897 -3.933648289957527,3.906818639189897 v-27.347730474329282 C37.08955085649993,13.152183515987142 38.85969258698082,14.91025190362259 38.85969258698082,17.059002155177037 z" data-original="#3C3A41" class="" stroke-width="0" id="svg_10"/>
</g><path style="fill:#008080" d="M67.1005337550729,59.13530867196427 c-1.770010608871222,3.008380579464194 -4.956134602127155,4.805517153491547 -8.45721270179902,4.805517153491547 H34.926044297023296 v-3.906818639189897 h23.717276756250584 c2.0847024720678244,0 4.012452377366343,-1.094039446261144 5.074275172435545,-2.891045793000524 c1.0622161598981974,-1.797266801315326 1.101552642797773,-3.9850852392616685 0.07880408740881598,-5.821420226968892 L40.07912355686765,8.893620971982175 c-1.0622161598981974,-1.9143411332030498 -2.989572700367721,-3.0471883112801468 -5.153079259844361,-3.0471883112801468 v-3.906818639189897 c3.61882530515126,0 6.844548024526098,1.9143411332030498 8.614689755006985,5.039665817266994 l23.717276756250584,42.46711860799419 C68.94947957296262,52.49384721262939 68.91014309006302,56.127188547076024 67.1005337550729,59.13530867196427 z" data-original="#FD3018" class="" data-old_color="#FD3018" stroke-width="0" id="svg_11"/></g></g></svg>